<svg width="980" height="980" xmlns="http://www.w3.org/2000/svg" version="1.1">

 <g>
  <title>Layer 1</title>
  <path id="svg_2" fill="#DC3D0A" d="m488,0c0.66,0 1.32,0 2,0c0.19521,0.5576 0.39042,1.1152 0.59155,1.6897c6.06455,17.11753 12.70966,31.08759 25.40845,44.3103c0.86605,1.05284 1.72223,2.11398 2.5625,3.1875c3.17973,3.66891 6.71476,6.70703 10.4375,9.8125c1.23943,1.03641 1.23943,1.03641 2.50391,2.09375c4.86445,4.02185 9.79904,7.94205 14.80859,11.78125c0.54028,0.41427 1.08056,0.82854 1.63721,1.25537c3.39814,2.60437 3.39814,2.60437 6.79834,5.20606c8.48236,6.50236 16.51741,13.28682 24.25195,20.66357c0.93715,0.8727 1.8743,1.74539 2.83984,2.64453c14.94786,14.31891 27.24761,33.31747 29.16016,54.35547c5.73058,-2.05842 9.01063,-4.58129 13.0625,-9.0625c0.98057,-1.08365 1.97133,-2.15817 2.97266,-3.22266c0.42676,-0.47316 0.85352,-0.94633 1.29321,-1.43383c1.67163,-1.28101 1.67163,-1.28101 7.67163,-3.28101c0,7.92 0,15.84 0,24c2.92875,-1.38188 5.8575,-2.76375 8.875,-4.1875c0.95383,-0.449 1.90765,-0.89799 2.89038,-1.3606c4.27733,-2.02076 8.50076,-4.09347 12.67212,-6.3269c24.83579,-12.29032 57.64251,-2.62267 83.68359,1.16089c0.7278,0.10571 1.45559,0.21141 2.20543,0.32033c1.98318,0.28867 3.96615,0.57873 5.94911,0.86888c17.17997,2.4213 36.92241,4.46869 53.49683,-1.65625c2.92745,-1.07614 5.87799,-2.07901 8.8291,-3.08838c5.68867,-1.9496 11.36033,-3.94314 17.02271,-5.96777c2.37573,-0.7627 2.37573,-0.7627 4.37573,-0.7627c-2.13863,8.40363 -4.90061,16.41012 -8.03906,24.48633c-4.76996,12.68043 -6.51216,24.96342 -6.39844,38.45117c0.00171,0.7254 0.00342,1.4508 0.00519,2.19818c0.05851,14.627 1.72132,28.7989 3.89398,43.25568c1.76338,11.82067 2.93445,23.31137 2.96387,35.26269c0.01194,2.27981 0.06142,4.55694 0.11157,6.83618c0.17473,15.93038 -3.58038,31.91434 -14.0957,44.35352c-1.37891,1.40625 -1.37891,1.40625 -3.44141,3.15625c2.73679,1.36839 5.04264,1.21635 8.10156,1.31641c1.21172,0.04189 2.42344,0.08379 3.67188,0.12695c1.90652,0.05897 1.90652,0.05897 3.85156,0.11914c1.27875,0.04318 2.5575,0.08637 3.875,0.13086c3.16655,0.10634 6.33319,0.20837 9.5,0.30664c-1.49508,4.97807 -2.85495,7.17026 -6.9375,10.4375c-4.26568,3.63167 -6.46926,6.21376 -8.0625,11.5625c0.54785,0.07477 1.0957,0.14953 1.66016,0.22656c38.9677,6.46294 62.90951,40.5936 84.61718,70.23047c6.40644,8.73022 13.20528,16.74962 20.72266,24.54297c0.59941,0.66258 1.19883,1.32516 1.81641,2.00781c11.93577,12.86312 28.59752,21.10143 45.18359,25.99219c0,0.66 0,1.32 0,2c-1.40186,0.69223 -1.40186,0.69223 -2.83203,1.39844c-3.59288,1.77997 -7.17542,3.57995 -10.75488,5.38672c-1.60664,0.80884 -3.21537,1.61355 -4.82618,2.41406c-25.87536,12.89075 -41.98608,30.93632 -58.82421,53.95654c-21.52249,29.38624 -41.29716,51.70764 -78.7627,57.84424c2.05842,5.73058 4.58129,9.01063 9.0625,13.0625c1.08365,0.98057 2.15817,1.97133 3.22266,2.97266c0.47316,0.42676 0.94633,0.85352 1.43383,1.29321c1.28101,1.67163 1.28101,1.67163 3.28101,7.67163c-7.92,0 -15.84,0 -24,0c1.17563,2.33063 2.35125,4.66125 3.5625,7.0625c2.85622,5.69886 5.66066,11.41962 8.375,17.1875c0.44098,0.92825 0.44098,0.92825 0.89087,1.87524c2.64869,5.67488 3.35143,10.28691 3.44507,16.5232c0.01239,0.75635 0.02478,1.5127 0.03755,2.29197c0.03259,2.47824 0.05128,4.95617 0.06401,7.43459c0.00456,0.84968 0.00912,1.69937 0.01382,2.5748c0.02937,15.34935 -1.82991,29.58312 -4.75601,44.65713c-4.34198,23.28121 -7.58648,49.64661 0.36719,72.39307c0.53101,1.56138 0.53101,1.56138 1.07275,3.1543c2.33049,6.84979 4.71446,13.67789 7.16455,20.48584c0.7627,2.35986 0.7627,2.35986 0.7627,4.35986c-8.26801,-1.58178 -15.7234,-4.46649 -23.50195,-7.63477c-13.50687,-5.28147 -26.74295,-6.9297 -41.18555,-6.80273c-0.70095,0.00171 -1.4019,0.00342 -2.12408,0.00519c-13.91833,0.05756 -27.38278,1.75266 -41.12787,3.94501c-12.50415,1.99092 -24.87482,2.71293 -37.53144,2.83776c-1.53446,0.01608 -3.06887,0.03808 -4.60315,0.06665c-19.59396,0.32683 -33.35851,-5.30909 -48.92596,-17.41711c-0.33,9.57 -0.66,19.14 -1,29c-5.61834,-1.12367 -5.61834,-1.12367 -8.5,-4.25c-0.59555,-0.62777 -1.19109,-1.25555 -1.80469,-1.90234c-0.55945,-0.60973 -1.1189,-1.21946 -1.69531,-1.84766c-3.1965,-3.42482 -5.49679,-5.58471 -10,-7c-0.11215,0.99902 -0.2243,1.99805 -0.33984,3.02734c-2.59694,17.98886 -13.6493,33.93191 -25.66016,46.97266c-1.09441,1.20076 -1.09441,1.20076 -2.21094,2.42578c-5.72664,5.99275 -12.19529,10.99349 -18.76025,16.01611c-2.17884,1.67333 -4.34508,3.36199 -6.50928,5.0542c-6.56332,5.12989 -13.13062,10.24281 -19.83203,15.19141c-23.00337,17.18094 -42.89084,37.49748 -49.6875,66.3125c-3.293,-2.72733 -4.81821,-6.35173 -6.625,-10.125c-0.71227,-1.44724 -1.42586,-2.89384 -2.14063,-4.33984c-0.36802,-0.7475 -0.73605,-1.49499 -1.11523,-2.26514c-13.48522,-27.35287 -31.79936,-44.27175 -56.14014,-62.13696c-10.38743,-7.62424 -20.58898,-15.27743 -29.979,-24.13306c-1.2665,-1.15242 -1.2665,-1.15242 -2.55859,-2.32812c-14.86966,-14.03225 -21.21649,-31.98288 -24.44141,-51.67188c-5.73058,2.05842 -9.01063,4.58129 -13.0625,9.0625c-0.98057,1.08365 -1.97133,2.15817 -2.97266,3.22266c-0.42676,0.47316 -0.85352,0.94633 -1.29321,1.43383c-1.67163,1.28101 -1.67163,1.28101 -7.67163,3.28101c0,-7.92 0,-15.84 0,-24c-2.33062,1.17562 -4.66125,2.35125 -7.0625,3.5625c-2.23302,1.11398 -4.46869,2.2224 -6.70508,3.32959c-1.43037,0.70987 -2.85894,1.42341 -4.28515,2.1416c-25.71888,12.91702 -52.95228,7.59147 -80.38477,2.90381c-14.20466,-2.42151 -27.94219,-4.09761 -42.375,-4.1875c-1.01377,-0.00935 -2.02753,-0.01869 -3.07202,-0.02832c-13.33651,0.05625 -25.19191,2.97292 -37.67798,7.34082c-2.01059,0.69193 -4.0222,1.3808 -6.03416,2.06871c-1.80229,0.61796 -3.60204,1.24327 -5.40163,1.86903c-2.32968,0.77593 -4.60996,1.45723 -7.00171,1.99976c1.63283,-8.45539 4.54639,-16.21367 7.63477,-24.23437c4.96576,-13.31917 6.92668,-26.20492 6.80273,-40.39063c-0.00171,-0.70278 -0.00342,-1.40556 -0.00519,-2.12964c-0.05223,-12.6519 -1.34985,-24.90159 -3.362,-37.40161c-2.14331,-13.40996 -3.44373,-26.57623 -3.44092,-40.16528c-0.00441,-2.37596 -0.04104,-4.7501 -0.07861,-7.12574c-0.14034,-19.08005 5.70704,-32.45564 17.44922,-47.55273c-9.57,-0.33 -19.14,-0.66 -29,-1c1.12367,-5.61834 1.12367,-5.61834 4.25,-8.5c0.62777,-0.59555 1.25555,-1.19109 1.90234,-1.80469c0.60973,-0.55945 1.21946,-1.1189 1.84766,-1.69531c3.42482,-3.1965 5.58471,-5.49679 7,-10c-1.16918,-0.10957 -2.33836,-0.21914 -3.54297,-0.33203c-24.17609,-3.0466 -46.40136,-22.87476 -60.76953,-41.23047c-1.39398,-1.80857 -2.77959,-3.6232 -4.16162,-5.44092c-1.65688,-2.16799 -3.33329,-4.31979 -5.01416,-6.46924c-5.13347,-6.5652 -10.24843,-13.13547 -15.19922,-19.83984c-17.91696,-23.98882 -37.29039,-40.98627 -66.3125,-49.6875c3.09752,-3.481 6.12722,-5.23939 10.34766,-7.17187c1.25852,-0.58843 2.51698,-1.17697 3.77539,-1.76563c1.95721,-0.90284 3.91609,-1.80183 5.87671,-2.69727c25.93622,-11.89801 42.40956,-31.84622 59.00024,-54.36523c2.97822,-4.01652 5.98237,-8.013 9,-12c0.40074,-0.53754 0.80147,-1.07508 1.21436,-1.62891c17.89965,-23.94803 37.78029,-38.8762 67.78564,-43.37109c-2.05842,-5.73058 -4.58129,-9.01063 -9.0625,-13.0625c-1.08365,-0.98057 -2.15817,-1.97133 -3.22266,-2.97266c-0.47316,-0.42676 -0.94633,-0.85352 -1.43383,-1.29321c-1.28101,-1.67163 -1.28101,-1.67163 -3.28101,-7.67163c7.92,0 15.84,0 24,0c-1.19625,-2.5575 -2.3925,-5.115 -3.625,-7.75c-0.39421,-0.84426 -0.78842,-1.68851 -1.19458,-2.55835c-2.06307,-4.39429 -4.22372,-8.71154 -6.49292,-13.00415c-11.86309,-24.04942 -4.65941,-53.70372 -0.0625,-78.875c2.35054,-12.89483 3.55172,-25.50903 3.625,-38.625c0.00927,-1.0132 0.01853,-2.02641 0.02808,-3.07031c-0.05859,-14.17073 -3.43625,-26.63199 -7.90308,-39.92969c-0.52177,-1.57847 -1.04261,-3.15724 -1.5625,-4.73633c-1.26011,-3.8207 -2.5327,-7.63702 -3.8125,-11.45117c8.40363,2.13863 16.41012,4.90061 24.48633,8.03906c12.27941,4.6191 24.22672,6.54271 37.32617,6.52344c1.05257,0.00326 1.05257,0.00326 2.1264,0.00659c15.10972,-0.00501 29.9115,-1.99036 44.86329,-3.99508c13.2422,-1.76477 26.26451,-3.16796 39.63531,-3.07401c1.25313,0.00645 2.50626,0.01289 3.79736,0.01953c16.37206,0.34607 32.44547,4.52449 44.53858,16.19141c0.40476,0.42539 0.80953,0.85078 1.22656,1.28906c0.80929,-3.60871 1.17814,-7.04462 1.31641,-10.73828c0.04189,-1.0667 0.08379,-2.1334 0.12695,-3.23242c0.05897,-1.65419 0.05897,-1.65419 0.11914,-3.3418c0.04318,-1.12213 0.08637,-2.24426 0.13086,-3.40039c0.10579,-2.76226 0.20788,-5.5246 0.30664,-8.28711c3.49585,0.762 5.27433,1.82414 7.9375,4.25c1.04414,0.94166 1.04414,0.94166 2.10937,1.90234c1.59254,1.50654 3.12612,3.07521 4.64063,4.66016c2.36976,2.24166 4.22564,3.21735 7.3125,4.1875c0.10957,-1.16918 0.21914,-2.33836 0.33203,-3.54297c3.27521,-25.99017 25.07555,-48.23312 44.66797,-63.45703c7.62812,-5.91284 15.30852,-11.75318 23.0625,-17.5c25.98792,-19.49985 45.39662,-38.67733 54.9375,-70.5z"/>
  <path id="svg_3" fill="#000000" d="m486.45898,241.73926c2.53996,0.01074 5.07921,0.00001 7.61914,-0.0127c57.33187,-0.05325 113.2634,22.13382 155.92188,60.27344c0.52996,0.47357 1.05993,0.94714 1.60595,1.43506c3.50455,3.14679 6.96126,6.34005 10.39405,9.56494c0.65613,0.6136 1.31226,1.22719 1.98828,1.85938c5.15268,4.97501 9.5522,10.54841 14.01172,16.14062c0.87703,1.07468 1.75465,2.14889 2.63281,3.22266c35.86313,44.22047 53.76872,99.57648 53.86719,156.15234c0.00451,1.45835 0.00451,1.45835 0.00912,2.94617c-0.00262,13.51377 -0.81185,26.62066 -3.19662,39.92883c-0.12198,0.68633 -0.24396,1.37265 -0.36963,2.07978c-9.33766,51.04943 -34.77489,95.23512 -69.94287,132.67022c-0.9204,0.9842 -0.9204,0.9842 -1.85938,1.98828c-4.97441,5.15207 -10.56088,9.53858 -16.14062,14.01172c-0.75797,0.6368 -1.51594,1.2736 -2.29688,1.92969c-21.0923,17.52843 -45.15878,29.52758 -70.70312,39.07031c-0.94207,0.35715 -1.88413,0.7143 -2.85474,1.08228c-5.83523,2.17795 -11.65756,4.00462 -17.70776,5.48022c-0.85207,0.2098 -1.70415,0.41959 -2.58204,0.63574c-5.75344,1.38092 -11.5216,2.56552 -17.35546,3.55176c-0.68007,0.11545 -1.36013,0.23091 -2.0608,0.34986c-12.01669,1.90344 -24.0514,2.11445 -36.19018,2.14038c-2.71614,0.00965 -5.4315,0.04074 -8.14746,0.07226c-12.29201,0.07367 -24.01339,-1.13206 -36.10156,-3.3125c-1.19944,-0.21062 -1.19944,-0.21062 -2.4231,-0.42549c-35.57592,-6.2775 -69.89379,-21.67729 -98.5769,-43.57451c-0.55672,-0.4154 -1.11343,-0.8308 -1.68702,-1.25879c-40.12106,-29.94518 -68.46426,-70.81513 -85.31298,-117.74121c-0.26926,-0.74814 -0.53851,-1.49628 -0.81592,-2.26709c-4.41925,-12.42676 -7.39632,-24.87538 -9.30908,-37.92041c-0.16887,-1.11053 -0.33774,-2.22105 -0.51172,-3.36523c-1.36957,-9.11785 -2.50987,-18.08394 -2.60157,-27.31055c-0.0097,-0.82179 -0.0194,-1.64357 -0.0294,-2.49026c-0.02485,-2.65304 -0.03752,-5.30582 -0.04481,-7.95896c-0.00262,-0.90912 -0.00524,-1.81824 -0.00794,-2.75491c-0.00491,-15.96499 1.29035,-31.22752 4.32044,-46.93259c0.14953,-0.83354 0.29906,-1.66708 0.45312,-2.52588c3.59586,-19.92287 10.67246,-39.32296 19.54688,-57.47412c0.40057,-0.82564 0.80115,-1.65129 1.21386,-2.50195c12.00309,-24.483 28.02903,-45.79571 46.78614,-65.49805c0.68449,-0.72574 1.36898,-1.45148 2.07421,-2.19922c5.25133,-5.42175 11.03609,-10.09402 16.92579,-14.80078c0.75668,-0.63551 1.51335,-1.27101 2.29296,-1.92578c28.76226,-23.91079 63.95272,-39.65603 100.26954,-47.82422c0.87277,-0.19892 1.74555,-0.39783 2.64477,-0.60278c14.62845,-3.11605 29.33124,-3.98262 44.25171,-3.90796z"/>
  <path id="svg_4" fill="#DD3D0A" d="m548.10669,384.46356c5.30425,0.06149 10.60851,0.12114 15.91278,0.18097c10.32684,0.11674 20.65366,0.23544 30.98047,0.35547c-0.04826,1.14364 -0.09652,2.28728 -0.14624,3.46557c-0.16103,4.30356 -0.21999,8.60386 -0.25049,12.91016c-0.02685,1.85183 -0.08023,3.7035 -0.16211,5.55371c-0.6515,10.5798 -0.6515,10.5798 3.03304,20.18713c3.52322,3.79131 7.51962,6.81151 11.80111,9.69498c2.15058,1.48192 4.04838,3.16458 5.94344,4.95798c0.5514,0.50725 1.10279,1.01449 1.6709,1.53711c14.98092,14.00884 28.25179,28.96055 40.11035,45.69336c-2.8467,5.28478 -6.06214,9.87183 -9.875,14.5c-0.5659,0.69069 -1.1318,1.38139 -1.71484,2.09302c-6.15771,7.43238 -12.70197,14.47184 -19.41016,21.40698c-0.56252,0.58443 -1.12503,1.16886 -1.70459,1.77099c-7.05685,7.30266 -14.31675,13.9346 -22.29541,20.22901c-1.98,1.65 -3.96,3.3 -6,5c-0.33,14.19 -0.66,28.38 -1,43c-69.96,0 -139.92,0 -212,0c-0.33,-14.85 -0.66,-29.7 -1,-45c-3.63,-2.97 -7.26,-5.94 -11,-9c-2.17571,-1.91803 -4.32227,-3.83261 -6.4375,-5.8125c-0.53512,-0.4979 -1.07024,-0.9958 -1.62158,-1.50879c-8.36605,-7.83319 -16.64655,-15.82444 -23.94092,-24.67871c-0.45939,-0.55623 -0.91878,-1.11246 -1.39209,-1.68555c-1.60649,-1.95258 -3.20247,-3.9133 -4.79541,-5.87695c-0.76764,-0.9384 -0.76764,-0.9384 -1.55078,-1.89575c-3.20927,-3.99636 -5.82825,-8.02909 -8.26172,-12.54175c12.3908,-16.42251 25.53952,-32.15591 40.5625,-46.25c0.57653,-0.54197 1.15307,-1.08394 1.74707,-1.64234c0.57976,-0.53568 1.15951,-1.07137 1.75684,-1.62329c0.5683,-0.53889 1.1366,-1.07778 1.72212,-1.63301c2.21147,-1.85136 2.21147,-1.85136 4.96011,-3.40233c4.14819,-2.58166 7.51223,-4.84263 8.87464,-9.64692c0.94422,-6.42461 0.71746,-12.89159 0.56422,-19.36461c-0.00697,-1.98241 -0.00897,-3.96485 -0.00586,-5.94727c-0.00317,-4.83225 -0.07395,-9.65922 -0.18164,-14.49023c11.64209,-0.13224 23.28421,-0.26274 34.92634,-0.39115c5.40917,-0.05972 10.81832,-0.11998 16.22747,-0.18161c37.99716,-0.43208 75.95606,-0.40666 113.95294,0.03632z"/>
  <path id="svg_5" fill="#220F01" d="m801,642c8.87584,6.18399 13.82603,19.80266 16,30c2.39159,16.03377 1.00309,32.04585 -0.8125,48.0625c-0.08942,0.78928 -0.17884,1.57856 -0.27097,2.39175c-0.90937,7.92338 -1.91149,15.80274 -3.272,23.66269c-1.80464,10.61453 -1.93755,21.14271 -1.95703,31.88306c-0.00359,0.7955 -0.00717,1.59101 -0.01086,2.41061c-0.02689,11.06378 0.48344,21.82291 3.32336,32.58939c-0.58266,-0.12117 -1.16531,-0.24234 -1.76562,-0.36719c-1.76507,-0.36078 -3.53226,-0.71128 -5.30079,-1.05468c-1.82555,-0.35977 -3.64712,-0.74135 -5.46093,-1.15625c-21.4311,-4.40581 -44.30106,-0.53771 -65.80079,1.60546c-1.30821,0.13028 -1.30821,0.13028 -2.64286,0.26319c-3.38909,0.33908 -6.77702,0.68187 -10.1628,1.05273c-7.59631,0.7935 -15.19528,0.8774 -22.82568,0.89697c-2.273,0.0097 -4.54509,0.04082 -6.81787,0.07227c-18.17471,0.13244 -33.48217,-3.21576 -47.77344,-15.1875c-1.44922,-2.125 -1.44922,-2.125 -1.38672,-4.92578c1.07444,-3.66653 2.51713,-6.99659 4.25,-10.38672c0.34684,-0.6878 0.69368,-1.37559 1.05103,-2.08423c2.89102,-5.58755 6.16963,-10.8793 9.57397,-16.16577c10.1666,-15.80315 20.26029,-32.19154 20.16016,-51.61719c-0.00323,-1.10859 -0.00645,-2.21718 -0.00977,-3.35937c-0.00838,-1.14211 -0.01676,-2.28422 -0.02539,-3.46094c-0.00451,-1.16531 -0.00902,-2.33062 -0.01367,-3.53125c-0.01174,-2.86464 -0.02816,-5.72917 -0.04883,-8.59375c4.36438,0.51472 8.09862,1.23927 12.125,3c3.29239,1.43056 6.33168,2.39474 9.875,3c-1.25787,-6.28935 -3.00937,-12.17185 -5.19531,-18.20312c-0.79318,-2.75689 -0.96068,-4.94755 -0.80469,-7.79688c1.16402,0.2359 1.16402,0.2359 2.35156,0.47656c14.35383,2.05933 28.30564,1.29509 41.64844,-4.47656c0.60876,-0.26281 1.21752,-0.52562 1.84473,-0.79639c9.10187,-4.05622 17.59279,-9.19652 26.15527,-14.26611c25.46682,-15.06092 25.46682,-15.06092 34,-13.9375z"/>
  <path id="svg_6" fill="#220F01" d="m284.6875,165.8125c1.31033,-0.01225 2.62066,-0.02449 3.9707,-0.03711c18.19259,-0.02722 31.62652,4.01975 45.9668,15.28711c1.375,1.9375 1.375,1.9375 1.16797,4.08203c-1.01837,3.66714 -2.49132,7.04612 -4.10547,10.48047c-0.34756,0.74073 -0.69513,1.48146 -1.05322,2.24463c-2.79203,5.76375 -6.02858,11.13505 -9.50928,16.50537c-4.12867,6.37634 -8.04019,12.80032 -11.625,19.5c-0.39687,0.72365 -0.79374,1.44729 -1.20264,2.19287c-6.06379,11.55416 -7.88866,22.26849 -7.54736,35.24463c0.02014,1.33786 0.03837,2.67576 0.05469,4.01367c0.04657,3.2254 0.11196,6.4492 0.19531,9.67383c-5.85984,-0.51666 -10.60894,-1.75281 -16,-4.0625c-0.67934,-0.28166 -1.35867,-0.56332 -2.05859,-0.85352c-1.65081,-0.68589 -3.29666,-1.38368 -4.94141,-2.08398c0.4125,1.2375 0.825,2.475 1.25,3.75c0.26941,0.81598 0.53883,1.63195 0.81641,2.47266c0.65602,1.95161 1.33236,3.89646 2.02343,5.83593c0.36223,1.03254 0.72446,2.06508 1.09766,3.12891c0.34418,0.96293 0.68836,1.92586 1.04297,2.91797c0.81937,3.08198 0.90592,5.71995 0.76953,8.89453c-1.41346,-0.23396 -1.41346,-0.23396 -2.85547,-0.47266c-29.05111,-4.0877 -49.85027,7.56332 -73.88061,22.14405c-20.23364,12.21571 -20.23364,12.21571 -26.26392,11.32861c-10.14895,-5.83067 -15.23939,-17.31678 -18.27344,-28.05469c-4.12532,-16.72306 -2.05633,-34.82326 0.08594,-51.75781c0.08942,-0.70877 0.17884,-1.41755 0.27097,-2.1478c0.83795,-6.55764 1.73123,-13.10125 2.85012,-19.61782c2.06348,-12.33075 2.38551,-24.50763 2.44141,-36.98438c0.00786,-0.86521 0.01571,-1.73043 0.0238,-2.62186c0.07351,-10.38597 -0.41447,-19.78971 -3.3988,-29.81564c1.0609,0.28875 2.1218,0.5775 3.21484,0.875c24.51591,6.07426 50.0179,3.60062 74.77665,0.36501c13.56047,-1.77058 27.02375,-2.42072 40.69601,-2.42751z"/>
  <path id="svg_7" fill="#220F01" d="m182,644c14.30026,2.68709 26.50636,10.99049 38.625,18.625c20.35491,12.81065 39.93617,20.28521 64.375,16.375c-0.5761,5.54955 -2.02099,10.26029 -4.0625,15.4375c-0.28166,0.73154 -0.56332,1.46309 -0.85352,2.2168c-0.68811,1.78444 -1.38513,3.56544 -2.08398,5.3457c0.60473,-0.21205 1.20946,-0.4241 1.83252,-0.64258c2.76092,-0.96207 5.52655,-1.90983 8.29248,-2.85742c0.95133,-0.33387 1.90266,-0.66773 2.88281,-1.01172c4.7878,-1.62918 8.85801,-2.97231 13.99219,-2.48828c-0.15984,0.78117 -0.31969,1.56234 -0.48437,2.36719c-4.16699,29.35832 8.30787,51.6313 23.05078,75.85547c9.40603,15.46157 9.40603,15.46157 11.05859,22.40234c-2.01051,7.63994 -10.2415,12.5789 -16.625,16.375c-9.61215,4.80607 -19.58505,6.37759 -30.25,6.3125c-1.46832,-0.00628 -1.46832,-0.00628 -2.96631,-0.0127c-15.62388,-0.22872 -31.31907,-1.89534 -46.73681,-4.38964c-14.44452,-2.31681 -28.43661,-3.31363 -43.04688,-3.34766c-0.85253,-0.00599 -1.70507,-0.01198 -2.58344,-0.01816c-10.24789,-0.04817 -19.52075,0.54088 -29.41656,3.45566c0.12117,-0.5804 0.24234,-1.1608 0.36719,-1.75879c5.31041,-26.21506 3.74615,-50.6584 0.77957,-77.00317c-1.49986,-13.42951 -2.6577,-26.71858 -2.64676,-40.23804c-0.0058,-1.30147 -0.0116,-2.60294 -0.01758,-3.94385c0.23221,-17.80328 3.58515,-34.04719 16.51758,-47.05615z"/>
  <path id="svg_8" fill="#220F01" d="m736,166c36.10707,5.65349 36.10707,5.65349 72,1c1.66353,-0.34866 3.32937,-0.68714 5,-1c-0.28875,1.0609 -0.5775,2.1218 -0.875,3.21484c-6.25137,25.18614 -3.23887,50.83947 -0.27075,76.25617c1.53925,13.26598 2.64084,26.35523 2.58325,39.71649c-0.00032,0.68166 -0.00064,1.36332 -0.00098,2.06564c-0.06432,18.75053 -4.06392,32.44532 -15.43652,47.37186c-2,1.375 -2,1.375 -4.68359,1.16406c-3.7418,-0.89027 -6.97589,-2.29913 -10.37891,-4.03906c-0.68119,-0.34354 -1.36238,-0.68707 -2.06421,-1.04102c-5.99975,-3.10408 -11.71668,-6.61986 -17.43579,-10.20898c-23.09891,-14.63346 -23.09891,-14.63346 -49.61328,-19.59766c-1.15693,0.00323 -2.31387,0.00645 -3.50586,0.00977c-1.79728,0.01257 -1.79728,0.01257 -3.63086,0.02539c-1.82628,0.00677 -1.82628,0.00677 -3.68945,0.01367c-2.9994,0.01176 -5.9987,0.0282 -8.99805,0.04883c0.51666,-5.85984 1.75281,-10.60894 4.0625,-16c0.28166,-0.67934 0.56332,-1.35867 0.85352,-2.05859c0.68589,-1.65081 1.38368,-3.29666 2.08398,-4.94141c-0.64026,0.21205 -1.28052,0.4241 -1.94019,0.64258c-2.91331,0.96011 -5.83021,1.90886 -8.74731,2.85742c-1.0074,0.33387 -2.0148,0.66773 -3.05273,1.01172c-0.97647,0.31582 -1.95293,0.63164 -2.95899,0.95703c-1.34324,0.43989 -1.34324,0.43989 -2.71362,0.88867c-2.6331,0.65399 -4.88599,0.76178 -7.58716,0.64258c0.23396,-1.41346 0.23396,-1.41346 0.47266,-2.85547c4.0877,-29.05111 -7.56332,-49.85027 -22.14405,-73.88061c-12.16779,-20.15427 -12.16779,-20.15427 -11.32861,-26.26392c5.26873,-9.72358 16.74569,-14.65166 26.60547,-18.05469c21.47409,-5.98012 45.84926,-1.19496 67.39453,2.05469z"/>
  <path id="svg_9" fill="#220F01" d="m501,768c3.69977,0.25262 5.48329,0.46116 8.09766,3.1875c0.64839,0.92812 1.29679,1.85625 1.96484,2.8125c15.32419,19.78307 41.94302,25.65832 64.90674,31.80737c8.08497,2.17229 16.06713,4.61415 24.03076,7.19263c1.48107,4.83751 0.49508,8.77498 -0.625,13.5625c-0.27687,1.19992 -0.27687,1.19992 -0.55933,2.42407c-3.83776,15.91946 -11.54357,28.26126 -22.81567,40.01343c-0.66387,0.72703 -1.32773,1.45406 -2.01172,2.20313c-9.6594,10.22976 -21.68957,17.97797 -33.26123,25.86279c-20.09831,13.71758 -36.68028,27.57456 -48.72705,48.93408c-2.79202,-2.52652 -4.61587,-5.39171 -6.625,-8.5625c-3.96134,-6.01456 -8.36922,-11.27331 -13.375,-16.4375c-0.57259,-0.60248 -1.14517,-1.20495 -1.73511,-1.82568c-4.8383,-4.99047 -9.97167,-9.20309 -15.57739,-13.29932c-0.86448,-0.64107 -1.72896,-1.28213 -2.61963,-1.94263c-4.3505,-3.2212 -8.72328,-6.41125 -13.10303,-9.59253c-9.69939,-7.05895 -19.05563,-14.29982 -27.96484,-22.33984c-1.05574,-0.94746 -1.05574,-0.94746 -2.13281,-1.91406c-15.28033,-14.45807 -24.40497,-35.24925 -25.86719,-56.08594c4.78904,-2.6478 9.35633,-4.01067 14.63281,-5.23437c1.70151,-0.40939 3.40292,-0.81916 5.10425,-1.22925c0.88119,-0.20991 1.76237,-0.41981 2.67026,-0.63608c38.40798,-8.68464 38.40798,-8.68464 69.01455,-32.06827c1.46863,-1.70491 2.89446,-3.338 4.57813,-4.83203c0.66,0 1.32,0 2,0c0.48211,1.03641 0.96422,2.07281 1.46094,3.14063c0.63799,1.3698 1.27601,2.73959 1.91406,4.10937c0.47566,1.02287 0.47566,1.02287 0.96094,2.06641c1.51425,3.24934 3.03433,6.48997 4.66406,9.68359c3.92403,-6.87573 7.50334,-13.89853 11,-21z"/>
  <path id="svg_10" fill="#220F01" d="m488,34c2.64648,2.40085 4.30172,5.00168 6.125,8.0625c3.22416,5.19179 6.93082,9.53665 11.15234,13.94141c1.72266,1.99609 1.72266,1.99609 1.72266,3.99609c0.56461,0.24105 1.12922,0.48211 1.71094,0.73047c2.75187,1.52621 4.65369,3.38983 6.91406,5.58203c6.92778,6.4177 14.56474,11.73321 22.26123,17.18164c26.1803,18.65097 50.85083,38.59173 58.11377,71.50586c0.51609,3.66997 0.81665,7.30114 1,11c-7.10163,3.53247 -14.32222,5.59149 -22,7.5c-1.19536,0.30478 -2.39073,0.60957 -3.62231,0.92358c-5.82528,1.47609 -11.65844,2.88645 -17.52564,4.18506c-19.46661,4.33187 -36.36166,11.87575 -49.17627,27.65699c-1.67578,1.73437 -1.67578,1.73437 -5.67578,3.73437c-2.64,-5.94 -5.28,-11.88 -8,-18c-0.66,0 -1.32,0 -2,0c-0.5543,1.10859 -1.10859,2.21719 -1.67969,3.35938c-2.77344,5.54687 -5.54687,11.09375 -8.32031,16.64062c-2.90257,-1.31162 -4.94645,-2.71417 -7.17969,-4.97656c-17.97384,-17.75847 -38.49689,-24.65057 -62.4331,-31.10596c-5.78352,-1.56656 -11.55381,-3.18016 -17.32471,-4.79248c-1.61721,-0.44751 -1.61721,-0.44751 -3.26709,-0.90405c-1.49008,-0.41488 -1.49008,-0.41488 -3.01025,-0.83814c-1.31666,-0.36521 -1.31666,-0.36521 -2.65992,-0.73779c-2.12524,-0.64502 -2.12524,-0.64502 -4.12524,-1.64502c-1.28649,-18.33252 8.35441,-37.34588 20,-51c12.51176,-14.17364 27.82848,-24.52012 43.354,-35.09839c18.37661,-12.5687 35.63922,-26.51938 45.646,-46.90161z"/>
  <path id="svg_11" fill="#220F01" d="m813,379c20.15393,0.838 38.25742,8.31528 53,22c0.85465,0.76312 1.7093,1.52625 2.58984,2.3125c12.06441,11.33806 21.29706,25.4582 30.5586,39.09155c12.8212,18.8132 26.63361,34.47955 46.85156,45.59595c-2.37106,2.61206 -4.90491,4.21874 -7.9375,6c-6.78203,4.23989 -12.35658,9.43046 -18.0625,15c-0.84184,0.8057 -0.84184,0.8057 -1.70068,1.62769c-4.23093,4.11633 -7.88881,8.46374 -11.42432,13.18481c-0.55204,0.72848 -1.10408,1.45696 -1.67285,2.20752c-4.06635,5.39303 -8.01835,10.86491 -11.95215,16.35498c-4.84587,6.75483 -9.80045,13.33852 -15.25,19.625c-0.42491,0.49194 -0.84981,0.98388 -1.2876,1.49072c-13.99243,16.08702 -30.91385,28.16549 -52.0874,32.32178c-0.69078,0.1364 -1.38155,0.2728 -2.09326,0.41333c-7.12489,1.27361 -7.12489,1.27361 -9.53174,-0.22583c-1.18168,-2.62314 -2.02374,-5.00301 -2.8125,-7.75c-0.24935,-0.82403 -0.49871,-1.64807 -0.75562,-2.49707c-2.28313,-7.76308 -4.13122,-15.63076 -5.99438,-23.50293c-5.17829,-21.85175 -10.93814,-41.75744 -28.60547,-56.67187c-1.70491,-1.46863 -3.338,-2.89446 -4.83203,-4.57813c0,-0.66 0,-1.32 0,-2c1.03641,-0.48211 2.07281,-0.96422 3.14062,-1.46094c1.36981,-0.63799 2.7396,-1.27601 4.10938,-1.91406c1.02287,-0.47566 1.02287,-0.47566 2.06641,-0.96094c0.66386,-0.30937 1.32773,-0.61875 2.01171,-0.9375c0.91121,-0.42418 0.91121,-0.42418 1.84083,-0.85693c1.95765,-0.92976 3.89567,-1.89447 5.83105,-2.86963c-3.12482,-1.64617 -6.24989,-3.29188 -9.375,-4.9375c-0.88945,-0.46857 -1.77891,-0.93715 -2.69531,-1.41992c-0.85078,-0.44795 -1.70157,-0.8959 -2.57813,-1.35742c-0.78552,-0.41371 -1.57104,-0.82742 -2.38037,-1.25367c-1.31741,-0.68938 -2.64128,-1.36654 -3.97119,-2.03149c0.27287,-3.27442 0.66981,-4.67981 3.0625,-7c2.9375,-2 2.9375,-2 4.76562,-2.86719c14.22064,-7.22229 18.61247,-29.25497 23.17188,-43.13281c4.49414,-13.92735 8.48993,-28.00891 12.44678,-42.09668c0.47853,-1.64635 1.01105,-3.27682 1.55322,-4.90332z"/>
  <path id="svg_12" fill="#220F01" d="m167,384c1.14063,2.57813 1.14063,2.57813 2.25,6.25c0.20834,0.68675 0.41669,1.3735 0.63135,2.08105c2.12333,7.2338 3.77569,14.581 5.49365,21.91895c5.47868,23.23225 11.70172,45.54884 30.92578,61.10938c1.69922,1.64062 1.69922,1.64062 3.69922,5.64062c-5.94,2.64 -11.88,5.28 -18,8c0,0.66 0,1.32 0,2c1.10859,0.5543 2.21719,1.10859 3.35938,1.67969c8.32031,4.16015 8.32031,4.16015 16.64062,8.32031c-0.31232,3.08158 -0.49401,4.5651 -2.89062,6.625c-0.7786,0.45375 -1.55719,0.9075 -2.35938,1.375c-20.89468,12.34048 -26.25925,44.95989 -32.31641,66.57813c-0.26095,0.92699 -0.52191,1.85399 -0.79077,2.80908c-0.49354,1.75979 -0.98178,3.52108 -1.46338,5.28418c-1.66295,5.9559 -3.78285,11.62972 -6.17944,17.32861c-16.63221,1.35773 -34.37536,-7.72648 -47.23047,-17.63281c-14.46742,-12.36567 -25.18151,-27.00839 -35.83667,-42.64136c-4.12938,-6.05189 -8.41145,-11.95873 -12.93286,-17.72583c-0.41186,-0.5269 -0.82371,-1.05381 -1.24805,-1.59668c-9.80539,-12.42263 -20.71312,-21.99183 -34.75195,-29.40332c2.40085,-2.64648 5.00168,-4.30172 8.0625,-6.125c5.92957,-3.71867 10.89769,-8.0414 15.9375,-12.875c0.71543,-0.65227 1.43086,-1.30453 2.16797,-1.97656c11.01342,-10.39153 19.44439,-23.44237 28.22851,-35.69507c4.30913,-5.98409 8.79543,-11.73236 13.60352,-17.32837c0.70254,-0.8366 1.40508,-1.6732 2.12891,-2.53516c15.16499,-17.55233 34.11091,-28.93746 57.22656,-32.30078c2.64453,-0.16406 2.64453,-0.16406 5.64453,0.83594z"/>
  <path id="svg_13" fill="#230F01" d="m486.45898,241.73926c2.53996,0.01074 5.07921,0.00001 7.61914,-0.0127c57.33187,-0.05325 113.2634,22.13382 155.92188,60.27344c0.52996,0.47357 1.05993,0.94714 1.60595,1.43506c3.50455,3.14679 6.96126,6.34005 10.39405,9.56494c0.65613,0.6136 1.31226,1.22719 1.98828,1.85938c5.15268,4.97501 9.5522,10.54841 14.01172,16.14062c0.87703,1.07468 1.75465,2.14889 2.63281,3.22266c35.86313,44.22047 53.76872,99.57648 53.86719,156.15234c0.00451,1.45835 0.00451,1.45835 0.00912,2.94617c-0.00262,13.51377 -0.81185,26.62066 -3.19662,39.92883c-0.12198,0.68633 -0.24396,1.37265 -0.36963,2.07978c-9.33766,51.04943 -34.77489,95.23512 -69.94287,132.67022c-0.9204,0.9842 -0.9204,0.9842 -1.85938,1.98828c-4.97441,5.15207 -10.56088,9.53858 -16.14062,14.01172c-0.75797,0.6368 -1.51594,1.2736 -2.29688,1.92969c-21.0923,17.52843 -45.15878,29.52758 -70.70312,39.07031c-0.94207,0.35715 -1.88413,0.7143 -2.85474,1.08228c-5.83523,2.17795 -11.65756,4.00462 -17.70776,5.48022c-0.85207,0.2098 -1.70415,0.41959 -2.58204,0.63574c-5.75344,1.38092 -11.5216,2.56552 -17.35546,3.55176c-0.68007,0.11545 -1.36013,0.23091 -2.0608,0.34986c-12.01669,1.90344 -24.0514,2.11445 -36.19018,2.14038c-2.71614,0.00965 -5.4315,0.04074 -8.14746,0.07226c-12.29201,0.07367 -24.01339,-1.13206 -36.10156,-3.3125c-1.19944,-0.21062 -1.19944,-0.21062 -2.4231,-0.42549c-35.57592,-6.2775 -69.89379,-21.67729 -98.5769,-43.57451c-0.55672,-0.4154 -1.11343,-0.8308 -1.68702,-1.25879c-40.12106,-29.94518 -68.46426,-70.81513 -85.31298,-117.74121c-0.26926,-0.74814 -0.53851,-1.49628 -0.81592,-2.26709c-4.41925,-12.42676 -7.39632,-24.87538 -9.30908,-37.92041c-0.16887,-1.11053 -0.33774,-2.22105 -0.51172,-3.36523c-1.36957,-9.11785 -2.50987,-18.08394 -2.60157,-27.31055c-0.0097,-0.82179 -0.0194,-1.64357 -0.0294,-2.49026c-0.02485,-2.65304 -0.03752,-5.30582 -0.04481,-7.95896c-0.00262,-0.90912 -0.00524,-1.81824 -0.00794,-2.75491c-0.00491,-15.96499 1.29035,-31.22752 4.32044,-46.93259c0.14953,-0.83354 0.29906,-1.66708 0.45312,-2.52588c3.59586,-19.92287 10.67246,-39.32296 19.54688,-57.47412c0.40057,-0.82564 0.80115,-1.65129 1.21386,-2.50195c12.00309,-24.483 28.02903,-45.79571 46.78614,-65.49805c0.68449,-0.72574 1.36898,-1.45148 2.07421,-2.19922c5.25133,-5.42175 11.03609,-10.09402 16.92579,-14.80078c0.75668,-0.63551 1.51335,-1.27101 2.29296,-1.92578c28.76226,-23.91079 63.95272,-39.65603 100.26954,-47.82422c0.87277,-0.19892 1.74555,-0.39783 2.64477,-0.60278c14.62845,-3.11605 29.33124,-3.98262 44.25171,-3.90796zm-42.45898,15.26074c-1.43855,0.31628 -2.87734,0.63144 -4.31641,0.94531c-3.93073,0.89135 -7.80975,1.94406 -11.68359,3.05469c-0.70834,0.19787 -1.41668,0.39574 -2.14649,0.59961c-47.75625,13.50808 -91.4557,43.29273 -120.85351,83.40039c-0.42475,0.56928 -0.8495,1.13857 -1.28711,1.7251c-19.31581,25.9127 -33.32624,55.50321 -41.02539,86.8999c-0.23059,0.93973 -0.46117,1.87946 -0.69873,2.84766c-3.7547,16.26576 -5.47447,32.221 -5.32496,48.90112c0.02376,2.82296 0.02051,5.64498 0.01392,8.46802c0.02232,14.79949 1.30776,29.17865 4.13477,43.7207c0.17176,0.88438 0.34353,1.76876 0.5205,2.67993c1.48767,7.36583 3.43848,14.48238 5.91016,21.58033c0.53738,1.54592 1.06431,3.09549 1.58398,4.64746c9.08865,27.10023 22.49564,51.14649 40.17286,73.52978c0.44424,0.56284 0.88848,1.12568 1.34619,1.70557c11.54784,14.46629 24.72952,27.35534 39.65381,38.29443c0.56928,0.42475 1.13856,0.84949 1.72509,1.28711c40.11825,29.90489 87.41659,45.91524 137.46241,45.96289c1.11059,0.00151 1.11059,0.00151 2.24362,0.00305c51.72908,-0.04721 102.28917,-17.57799 142.56888,-50.25305c0.59184,-0.4776 1.18368,-0.95519 1.79345,-1.44726c13.29481,-10.82332 25.86927,-22.84575 36.20655,-36.55274c0.48678,-0.64276 0.97356,-1.28552 1.47509,-1.94775c7.96442,-10.57809 15.26817,-21.37579 21.52491,-33.05225c0.43522,-0.80905 0.87044,-1.61809 1.31884,-2.45166c12.09841,-22.89511 21.40497,-48.78734 24.68116,-74.54834c0.25946,-1.94 0.25946,-1.94 0.52417,-3.91919c1.31446,-10.34619 1.76248,-20.5357 1.68164,-30.95996c-0.01844,-2.44989 -0.02051,-4.89941 -0.02027,-7.34936c-0.02853,-13.96433 -0.98756,-27.35902 -3.74804,-41.08399c-0.12933,-0.64513 -0.25866,-1.29027 -0.39191,-1.95495c-3.93993,-19.4249 -10.32764,-37.93842 -19.04559,-55.73255c-0.41122,-0.84159 -0.82243,-1.68319 -1.2461,-2.55029c-6.01154,-12.16802 -12.63416,-23.57052 -20.7539,-34.44971c-0.68063,-0.91386 -0.68063,-0.91386 -1.375,-1.84619c-6.39073,-8.50356 -13.25876,-16.48412 -20.625,-24.15381c-0.72921,-0.76208 -0.72921,-0.76208 -1.47315,-1.53955c-6.76846,-7.03294 -13.76162,-13.52005 -21.52685,-19.46045c-0.60457,-0.46986 -1.20915,-0.93972 -1.83204,-1.42383c-20.14126,-15.55286 -42.21321,-27.09227 -66.16796,-35.57617c-1.40984,-0.50418 -1.40984,-0.50418 -2.84815,-1.01855c-36.95083,-12.93766 -79.90013,-16.13997 -118.15185,-6.98145z"/>
  <path id="svg_14" fill="#230F01" d="m286,315c-0.05661,8.2915 -1.58571,13.06852 -6.8125,19.4375c-5.71956,7.39488 -10.63966,15.00923 -15.31567,23.10132c-0.4656,0.80059 -0.93119,1.60118 -1.41089,2.42602c-0.40428,0.70762 -0.80857,1.41523 -1.2251,2.14429c-2.89353,4.42718 -6.40741,6.06884 -11.23584,7.95337c-0.67354,0.26313 -1.34707,0.52626 -2.04102,0.79736c-10.51144,3.97805 -20.77597,4.74807 -31.95898,4.14014c-0.99,-0.495 -0.99,-0.495 -2,-1c1.97307,5.44784 4.31883,8.61107 8.6875,12.4375c4.78289,4.47328 8.10153,9.00101 11,14.875c0.32637,0.65734 0.65275,1.31468 0.98901,1.99194c3.96019,8.53105 3.12034,14.80372 0.63599,23.63306c-2.60332,9.64649 -4.49673,19.20363 -5.66675,29.13062c-0.879,6.31242 -2.47138,10.89516 -7.64575,14.93188c-4.38121,0.58416 -6.96273,-1.50664 -10.375,-4c-21.45588,-17.8199 -26.6797,-46.55981 -32.65991,-72.57178c-3.58984,-15.15068 -9.32022,-28.46091 -17.96509,-41.42822c0.81082,-0.10957 1.62164,-0.21914 2.45703,-0.33203c21.04497,-3.01343 37.83543,-11.5229 55.81201,-22.36182c21.61649,-12.99996 41.12811,-21.10291 66.73096,-15.30615z"/>
  <path id="svg_15" fill="#230F01" d="m352,161c0.46406,0.34031 0.92813,0.68063 1.40625,1.03125c17.95239,12.59347 38.41139,18.00788 59.21533,24.07056c43.60254,12.73437 43.60254,12.73437 56.37842,31.89819c-0.25948,3.89217 -2.3006,6.3176 -5,9c-2.80081,0.96548 -5.62599,1.24725 -8.5625,1.5625c-1.7089,0.2262 -3.41723,0.4568 -5.125,0.69141c-0.87656,0.11746 -1.75312,0.23493 -2.65625,0.35595c-4.2753,0.62794 -8.49353,1.49007 -12.71875,2.39014c-1.19557,0.25294 -1.19557,0.25294 -2.41528,0.51099c-4.8697,1.05787 -9.62223,2.28825 -14.31909,3.97339c-6.92768,1.62136 -11.45874,-0.10537 -17.39063,-3.42188c-0.7396,-0.40243 -1.4792,-0.80486 -2.24121,-1.21948c-6.65942,-3.71258 -12.65106,-8.03513 -18.57129,-12.84302c-0.93328,-0.74637 -1.86656,-1.49273 -2.82812,-2.26172c-1.07508,-0.86045 -1.07508,-0.86045 -2.17188,-1.73828c0.0825,1.25812 0.165,2.51625 0.25,3.8125c-0.03661,12.90658 -3.44233,28.17285 -10.25,39.1875c-2.70075,2.67291 -5.65198,4.24487 -9,6c-2.2029,1.35584 -4.38749,2.7261 -6.5625,4.125c-0.58306,0.37044 -1.16612,0.74089 -1.76685,1.12256c-6.96621,4.48209 -13.52142,9.51911 -20.08349,14.56665c-3.92982,2.93603 -5.90941,3.41542 -10.77466,3.31079c-1.08668,-0.01805 -2.17336,-0.03609 -3.29297,-0.05469c-0.83144,-0.0232 -1.66289,-0.0464 -2.51953,-0.07031c-2.96877,-13.27954 -2.62115,-29.57597 3,-42c0.25781,-0.58556 0.51562,-1.17111 0.78125,-1.77441c4.11205,-9.20929 9.26862,-17.67016 14.70923,-26.14454c11.55606,-18.01068 19.0336,-34.74279 22.50952,-56.08105z"/>
  <path id="svg_16" fill="#230F01" d="m219.85938,511.04297c3.20609,1.43338 5.81347,3.34931 8.14063,5.95703c1.07666,3.35889 1.07666,3.35889 1.53906,7.17969c0.093,0.68982 0.18601,1.37964 0.28183,2.09036c0.29272,2.19931 0.55038,4.40083 0.80411,6.60495c0.3533,2.87429 0.72299,5.74613 1.10156,8.61719c0.09065,0.70912 0.18131,1.41825 0.27472,2.14886c0.6775,4.95223 1.81036,9.63567 3.20965,14.42926c2.2255,7.9347 2.2717,12.86512 -1.68652,20.35791c-0.33806,0.60119 -0.67611,1.20238 -1.02441,1.82178c-0.35095,0.64115 -0.7019,1.2823 -1.06348,1.94287c-3.5838,6.37348 -7.85736,12.109 -12.43653,17.80713c-0.74765,0.93586 -1.49531,1.87172 -2.26562,2.83594c-0.85852,1.07121 -0.85852,1.07121 -1.73438,2.16406c0.59934,-0.0261 1.19867,-0.05221 1.81617,-0.0791c6.57129,-0.1602 12.38842,0.73145 18.74634,2.3291c0.88107,0.20496 1.76214,0.40992 2.66992,0.6211c13.98094,3.40495 13.98094,3.40495 18.67773,7.99609c0.38027,0.66258 0.76055,1.32516 1.15235,2.00781c0.47308,0.79149 0.94617,1.58297 1.43359,2.39844c0.74443,1.34965 0.74443,1.34965 1.50391,2.72656c1.20456,2.16877 2.41323,4.33525 3.625,6.5c0.32605,0.58395 0.6521,1.16789 0.98803,1.76953c4.96164,8.71334 10.8759,17.00002 17.07593,24.87598c0.54608,0.69706 1.09216,1.39412 1.65479,2.1123c0.74926,0.93417 0.74926,0.93417 1.51367,1.88721c1.87342,3.04151 1.57712,5.37863 1.14258,8.85498c-28.79029,5.96989 -50.8468,-6.24755 -74.26563,-21.0664c-16.47627,-10.36869 -32.22067,-17.50636 -51.73438,-19.9336c0.65356,-0.98226 0.65356,-0.98226 1.32032,-1.98437c11.01616,-16.88192 17.12013,-34.68766 22.17968,-54.07813c5.76146,-22.01832 12.80282,-45.63449 31.64063,-60.07422c1.85937,-0.86328 1.85937,-0.86328 3.71875,-0.82031z"/>
  <path id="svg_17" fill="#230F01" d="m623,161c2.1875,0.3125 2.1875,0.3125 4,1c0.15855,0.98098 0.31711,1.96195 0.48047,2.97266c3.46752,20.49502 11.37962,37.64346 22.58203,55.02734c12.30629,19.15899 20.05437,38.48699 15.9375,61.5c-0.32851,1.50106 -0.66097,3.00128 -1,4.5c-0.47381,-0.36062 -0.94762,-0.72123 -1.43579,-1.09277c-11.09584,-8.39043 -22.56385,-16.30128 -34.56421,-23.34473c-0.69883,-0.41451 -1.39767,-0.82903 -2.11768,-1.2561c-3.04532,-1.77796 -5.99032,-3.35206 -9.2456,-4.72827c-4.3667,-1.87393 -6.9208,-3.23084 -9.19141,-7.50391c-3.49361,-11.02294 -2.85254,-22.64519 -2.44531,-34.07422c-5.47414,1.98073 -8.69538,4.3788 -12.5625,8.75c-6.10253,6.46214 -13.56668,12.3283 -22.67969,13.55078c-2.05164,-0.19154 -3.78065,-0.71475 -5.75781,-1.30078c-8.43603,-2.24787 -16.91622,-4.04301 -25.5,-5.625c-1.13309,-0.21656 -2.26617,-0.43313 -3.43359,-0.65625c-6.54254,-1.21408 -12.94976,-2.05143 -19.59864,-2.38208c-3.36113,-0.45855 -5.22065,-1.84879 -7.46777,-4.33667c1.01055,-8.60841 6.04772,-14.64005 12.5,-20.1875c13.82001,-10.38074 30.83851,-14.29658 47.38617,-18.07547c28.79563,-5.79306 28.79563,-5.79306 52.63727,-21.49875c0.48726,-0.40863 0.97453,-0.81726 1.47656,-1.23828z"/>
  <path id="svg_18" fill="#230F01" d="m315,694c4.35254,0.87132 6.94405,3.24595 10.25,6.0625c6.69263,5.52625 13.71217,10.44602 20.9375,15.25c0.98452,0.65686 1.96904,1.31372 2.9834,1.99048c5.97812,3.94247 12.03859,7.56856 18.35083,10.95386c3.71438,2.61262 4.90056,5.40424 6.00952,9.72363c1.3632,9.19416 0.76074,18.7611 0.46875,28.01953c5.6532,-2.04417 8.86853,-4.46525 12.875,-8.875c10.23213,-10.6512 10.23213,-10.6512 17.22266,-11.32812c5.62885,0.36776 10.99798,2.38659 16.33593,4.09375c16.4159,5.10636 33.40304,8.11588 50.56641,9.10937c-2.59831,10.39322 -11.01449,18.21749 -19.8125,23.77734c-17.45781,9.43492 -37.54281,13.83967 -56.75928,18.25757c-15.15068,3.58984 -28.46091,9.32022 -41.42822,17.96509c-0.15855,-1.13695 -0.31711,-2.27391 -0.48047,-3.44531c-3.2668,-22.16071 -12.81266,-39.54094 -24.26977,-58.4458c-8.92484,-14.78199 -15.42145,-28.98381 -15.43726,-46.54639c-0.01225,-0.71221 -0.02449,-1.42441 -0.03711,-2.1582c-0.01392,-5.10952 0.82286,-9.48986 2.22461,-14.4043z"/>
  <path id="svg_19" fill="#230F01" d="m756.44531,325.35156c2.7884,1.78824 5.56552,3.593 8.34106,5.40112c17.34406,11.24958 33.46162,18.88277 54.21363,21.24732c-0.4241,0.63164 -0.84821,1.26328 -1.28516,1.91406c-11.0694,16.88387 -16.84223,34.14569 -22.15234,53.46094c-13.28002,48.18028 -13.28002,48.18028 -34.5625,61.625c-0.09499,-0.7027 -0.18998,-1.4054 -0.28784,-2.1294c-2.78392,-20.32505 -6.09054,-40.24963 -12.89185,-59.65576c-1.24347,-4.87322 -0.46461,-7.06019 1.96484,-11.41406c0.7495,-1.16899 1.5091,-2.33154 2.27735,-3.48828c0.39759,-0.60925 0.79519,-1.21849 1.20483,-1.84619c3.58836,-5.41702 7.53713,-10.50483 11.73267,-15.46631c-0.66903,0.0464 -1.33805,0.09281 -2.02735,0.14062c-6.57731,0.2472 -12.53471,-0.46113 -18.91015,-1.95312c-0.72115,-0.16532 -1.4423,-0.33065 -2.18531,-0.50098c-5.95554,-1.4762 -9.60197,-2.70862 -12.98266,-7.95215c-0.7045,-1.32259 -1.39794,-2.65111 -2.08203,-3.98437c-8.9085,-16.54381 -20.0797,-31.28892 -32.19532,-45.60547c-1.61718,-2.14453 -1.61718,-2.14453 -1.61718,-4.14453c22.08402,-6.37727 44.98113,2.74494 63.44531,14.35156z"/>
  <path id="svg_20" fill="#230F01" d="m669,697c4.77075,14.31226 0.0755,31.53564 -6.20703,44.51953c-4.67431,9.07366 -9.67939,17.8921 -15.29297,26.41797c-10.60719,16.20388 -17.28578,31.62981 -19.5,51.0625c-0.67805,-0.4473 -1.35609,-0.89461 -2.05469,-1.35547c-15.89143,-10.32283 -32.61103,-16.37577 -50.88281,-21.14453c-50.94676,-13.34558 -50.94676,-13.34558 -64.0625,-34.5c0,-0.66 0,-1.32 0,-2c0.7027,-0.06469 1.4054,-0.12939 2.12939,-0.19604c19.84728,-1.87954 38.88739,-5.02425 57.89795,-11.10474c4.60062,-1.08214 8.34597,-1.44179 12.71094,0.55078c0.84949,0.5775 1.69899,1.155 2.57422,1.75c0.93457,0.63293 1.86914,1.26586 2.83203,1.91797c3.68143,2.68427 7.24973,5.48086 10.76172,8.38281c2.18641,1.8286 2.18641,1.8286 5.09375,3.69922c0.03738,-1.00418 0.07477,-2.00836 0.11328,-3.04297c1.03185,-23.07487 1.03185,-23.07487 5.92969,-28.01953c3.86761,-2.53413 7.89508,-4.60597 12.01953,-6.6875c14.80637,-7.65493 28.64555,-17.2273 41.28906,-28.11328c2.64844,-2.13672 2.64844,-2.13672 4.64844,-2.13672z"/>
  <path id="svg_21" fill="#230F01" d="m762,509c12.21367,4.66756 18.40177,15.53878 24,26.75c5.47396,12.29445 9.06502,25.56378 11.9375,38.6875c4.09577,18.51833 10.32442,36.82887 21.0625,52.5625c-1.70543,0.23783 -1.70543,0.23783 -3.44531,0.48047c-21.03,3.10012 -37.73493,11.70806 -55.67969,22.64453c-17.96581,10.91418 -35.42719,18.75332 -56.875,16.875c-2.52344,-1.02344 -2.52344,-1.02344 -4,-2c0.58266,-0.65742 1.16531,-1.31484 1.76562,-1.99219c11.74896,-13.63322 20.93753,-28.80694 29.73829,-44.46093c0.44488,-0.78569 0.88977,-1.57137 1.34814,-2.38086c1.29267,-2.33442 1.29267,-2.33442 2.48779,-5.65039c1.66016,-2.51563 1.66016,-2.51563 5.12891,-3.88282c5.30668,-0.96949 10.65675,-0.8495 16.03125,-0.75781c1.5198,0.01354 1.5198,0.01354 3.07031,0.02734c2.47682,0.02337 4.95312,0.05613 7.42969,0.09766c-2.46826,-5.63096 -5.0639,-9.49493 -9.5625,-13.6875c-6.76515,-6.3429 -6.76515,-6.3429 -8.4375,-10.3125c0.24579,-5.76558 2.15031,-11.19557 3.8125,-16.6875c5.41892,-18.54857 8.13082,-37.12002 10.1875,-56.3125z"/>
  <path id="svg_22" fill="#040100" d="m524,412c0.90476,0.33322 1.80952,0.66645 2.7417,1.00977c18.27066,6.8771 35.20039,15.70652 50.57742,27.79927c1.66855,1.26354 1.66855,1.26354 3.6994,2.09713c2.69872,1.41789 4.15534,2.62564 5.98148,5.09383c1.35649,6.06015 1.34779,12.09547 1.37891,18.28516c0.02828,1.82117 0.05758,3.64234 0.08787,5.46348c0.05236,3.81747 0.07123,7.6335 0.07057,11.45131c0.00382,3.89919 0.06613,7.79013 0.18457,11.6875c1.01815,33.98315 1.01815,33.98315 -5.30493,41.42944c-3.39412,2.97829 -6.97227,4.96522 -11.13368,6.67609c-3.27195,1.44305 -6.13066,3.39578 -9.0912,5.38652c-25.1549,16.67777 -52.18503,24.47397 -82.19211,23.6205c0,-0.33 0,-0.66 0,-1c1.01836,-0.02578 2.03672,-0.05156 3.08594,-0.07812c22.54619,-0.80022 43.07763,-6.18097 59.91406,-21.92188c0.62906,-0.53883 1.25812,-1.07766 1.90625,-1.63281c8.96488,-8.10915 15.26757,-20.05371 19.09375,-31.36719c0.3184,-0.91008 0.6368,-1.82016 0.96484,-2.75781c5.98095,-20.67147 2.88656,-43.58701 -7.34472,-62.22705c-9.81776,-17.02509 -23.60002,-27.78639 -41.62012,-35.01514c-1.2491,-0.50467 -1.2491,-0.50467 -2.52344,-1.01953c-19.08695,-6.99396 -40.06316,-4.80996 -58.47656,3.01953c-7.85303,3.64273 -14.50071,8.30497 -21,14c-0.68836,0.59297 -1.37672,1.18594 -2.08594,1.79688c-12.422,11.48912 -21.88035,29.85114 -23.10132,46.80297c-0.08002,2.76181 -0.09049,5.51236 -0.06274,8.27515c0.00677,0.97308 0.01354,1.94616 0.02051,2.94873c0.09483,6.57336 0.43537,12.81998 2.22949,19.17627c0.25652,0.94359 0.51305,1.88719 0.77734,2.85938c6.30199,20.8804 19.71693,37.1205 38.8125,47.38671c8.90903,4.58208 17.56645,6.88162 27.41016,8.75391c0,0.33 0,0.66 0,1c-6.41823,0.29645 -11.73177,-0.68404 -17.875,-2.5c-1.37648,-0.40376 -1.37648,-0.40376 -2.78076,-0.81567c-20.86248,-6.34374 -40.38101,-17.01888 -57.34424,-30.68433c-0.79937,-0.44859 -1.59875,-0.89719 -2.42235,-1.35937c-4.54147,-2.86453 -7.15235,-5.03382 -8.55618,-10.33761c-0.54079,-4.65046 -0.52058,-9.3033 -0.49022,-13.9788c-0.01692,-1.73344 -0.03621,-3.46686 -0.05774,-5.20024c-0.0327,-3.62605 -0.02745,-7.24965 0.00305,-10.87569c0.03454,-4.62294 -0.03961,-9.23677 -0.14452,-13.85838c-0.06654,-3.57902 -0.06731,-7.15589 -0.04971,-10.73539c-0.00071,-1.702 -0.02298,-3.40414 -0.0682,-5.10553c-0.29649,-12.86231 -0.29649,-12.86231 3.17529,-17.34163c3.78878,-3.72395 8.08229,-6.46764 12.61058,-9.20736c1.39377,-0.98174 2.78246,-1.97097 4.15625,-2.98047c1.10947,-0.74337 2.22392,-1.47937 3.34375,-2.20703c0.61907,-0.40525 1.23814,-0.8105 1.87598,-1.22803c31.41823,-20.35716 72.59307,-34.43304 109.62402,-20.58447z"/>
  <path id="svg_23" fill="#D83C0A" d="m541,428.5c14.35748,12.47911 26.00928,30.23064 28,49.5c1.50282,23.99808 -1.86089,46.07772 -18.00781,64.83203c-0.65742,0.71543 -1.31485,1.43086 -1.99219,2.16797c-0.6368,0.70512 -1.27359,1.41023 -1.92969,2.13672c-16.2173,17.09655 -37.60772,23.4982 -60.50781,24.73828c-1.35956,0.0742 -1.35956,0.0742 -2.74658,0.1499c-6.43109,0.23165 -6.43109,0.23165 -9.81592,-2.0249c-2.24037,-0.5802 -4.49252,-1.1154 -6.75,-1.625c-18.353,-4.57929 -35.36283,-16.70309 -45.44531,-32.76953c-11.79264,-19.67317 -16.77914,-42.83507 -11.30469,-65.48047c3.86491,-12.31601 9.75249,-23.59138 18.5,-33.125c0.66387,-0.75539 1.32773,-1.51078 2.01172,-2.28906c28.88841,-31.07773 77.36306,-31.86604 109.98828,-6.21094zm-109,16.5c-13.18526,17.77817 -17.50842,37.45101 -14.70703,59.2832c3.22528,18.15521 14.00185,34.74413 28.70703,45.7168c17.89857,12.0221 36.94749,16.09441 58.37891,12.33594c13.09894,-3.14156 24.63693,-9.33942 34.62109,-18.33594c0.95133,-0.82951 0.95133,-0.82951 1.92187,-1.67578c13.53692,-12.5486 19.75809,-31.14109 21.42969,-49.10156c0.48708,-19.68254 -6.97356,-38.77981 -20.29687,-53.25782c-15.01162,-14.35522 -34.06878,-22.68573 -54.82813,-22.36963c-21.87431,0.87115 -41.09239,10.82768 -55.22656,27.40479z"/>
  <path id="svg_24" fill="#060100" d="m536.4375,434.75c14.68147,13.0502 24.43781,31.49205 25.75781,51.16016c0.68424,19.8658 -5.80524,39.24298 -19.19531,54.08984c-0.7425,0.87979 -0.7425,0.87979 -1.5,1.77734c-10.89936,12.01655 -28.16109,20.05372 -44.21069,21.46021c-22.15649,1.03613 -39.551,-3.21434 -56.72681,-17.90161c-12.9061,-11.76501 -22.57161,-28.03275 -23.72363,-45.82447c-0.35362,-21.97133 2.93559,-40.69217 18.16113,-57.51147c0.56848,-0.66 1.13695,-1.32 1.72266,-2c26.37832,-28.67453 70.24525,-28.48204 99.71484,-5.25zm-95.375,11.84375c-11.90248,13.88622 -17.29073,30.30901 -16.0625,48.40625c1.79818,12.91037 6.11387,24.58953 14,35c0.48855,0.66516 0.97711,1.33031 1.48047,2.01563c8.91416,11.18122 23.50597,19.50663 37.51953,21.98437c19.2725,1.80361 37.3171,-1.04349 52.87109,-13.25391c6.09594,-5.28534 10.97505,-10.8339 15.12891,-17.74609c0.4602,-0.75539 0.92039,-1.51078 1.39453,-2.28906c8.29487,-14.98589 9.83594,-32.43273 5.5105,-48.85791c-3.3598,-11.45558 -9.45728,-20.51963 -17.90503,-28.85303c-0.71027,-0.72059 -1.42055,-1.44117 -2.15234,-2.18359c-12.88526,-12.32605 -28.96115,-16.14929 -46.26172,-15.96485c-18.40018,0.76167 -32.86725,8.54359 -45.52344,21.74219z"/>
  <path id="svg_25" fill="#D83C0A" d="m534.62891,442.24609c12.0251,11.18059 19.42574,26.64295 20.60938,43.05859c0.40401,19.43531 -5.69662,36.44769 -19.23829,50.69532c-12.77119,12.3241 -28.69188,18.62574 -46.375,18.4375c-1.00514,-0.00758 -2.01029,-0.01515 -3.04589,-0.02295c-17.00559,-0.37614 -31.37499,-7.64372 -43.57911,-19.41455c-12.64432,-14.37213 -18.47527,-31.15054 -18.27343,-50.1836c1.36003,-18.98217 10.95672,-33.44759 24.55859,-45.91015c25.72364,-21.28853 61.00827,-17.45199 85.34375,3.33984zm-88.62891,9.75391c-11.10468,14.41661 -14.85494,30.1327 -13,48c3.0694,14.9134 12.48097,28.15819 24.75,36.97656c13.46897,8.41811 27.83203,11.18181 43.36914,7.88989c15.38138,-3.65471 27.60417,-11.9114 36.34961,-25.19458c8.19729,-14.30342 11.13388,-29.69942 6.96875,-45.85937c-5.1138,-15.76757 -15.05173,-27.57041 -29.65234,-35.44532c-6.13439,-3.01127 -11.90087,-5.00316 -18.78516,-5.36718c-1.1898,-0.06446 -2.37961,-0.12891 -3.60547,-0.19532c-18.06976,-0.65848 -34.02322,5.78778 -46.39453,19.19532z"/>
  <path id="svg_26" fill="#090200" d="m522.75,443.3125c1.43532,1.20733 2.85252,2.43657 4.25,3.6875c0.68836,0.59555 1.37672,1.19109 2.08594,1.80469c10.25033,9.46486 15.87841,22.09506 17.29297,35.89062c0.51629,15.95508 -4.28424,30.42205 -14.62891,42.55469c-11.74805,12.37566 -26.56963,18.54054 -43.5,19.125c-15.17784,-0.27985 -28.11486,-6.21146 -39.0625,-16.5625c-5.15042,-5.43243 -8.96028,-11.06867 -12.1875,-17.8125c-0.43313,-0.89848 -0.86625,-1.79695 -1.3125,-2.72266c-4.87827,-12.04322 -4.37403,-27.29681 0.05469,-39.39062c7.05774,-16.19773 17.30978,-26.96042 33.6914,-33.88672c17.07169,-6.65198 38.64515,-3.74776 53.31641,7.3125zm-72.75,13.6875c-8.96572,12.08926 -12.27792,25.1838 -11,40c2.58971,13.59969 9.71855,25.69374 21.125,33.625c12.8829,8.62406 26.64321,10.93864 41.99951,7.96338c12.3551,-3.34261 23.26325,-11.59479 30.06299,-22.33838c0.96349,-1.73583 1.90162,-3.486 2.8125,-5.25c0.41637,-0.76313 0.83273,-1.52625 1.26172,-2.3125c4.97276,-10.88773 4.70011,-26.53989 0.86328,-37.75c-6.84146,-14.70433 -17.40372,-23.96043 -32.36328,-29.99219c-20.01207,-6.84996 -40.86522,0.93706 -54.76172,16.05469z"/>
  <path id="svg_27" fill="#020000" d="m595,456c4.1438,3.55183 8.05406,6.92686 11.88281,10.75c1.28584,1.28391 1.28584,1.28391 2.59766,2.59375c1.30904,1.31484 1.30904,1.31484 2.64453,2.65625c0.88043,0.87656 1.76086,1.75313 2.66797,2.65625c2.42416,2.42782 4.8247,4.87492 7.20703,7.34375c0.58233,0.6007 1.16467,1.20141 1.76465,1.82031c3.21339,3.53051 3.21339,3.53051 3.30566,6.25782c-1.43324,2.57355 -3.17745,4.52405 -5.19531,6.67187c-0.81855,0.88172 -1.63711,1.76344 -2.48047,2.67188c-0.79019,0.85078 -1.58039,1.70156 -2.39453,2.57812c-1.1513,1.32862 -2.29764,2.66155 -3.4375,4c-5.63107,6.44489 -11.19495,12.57947 -18.5625,17c0,-22.11 0,-44.22 0,-67z"/>
  <path id="svg_28" fill="#010000" d="m383,458c0,20.79 0,41.58 0,63c-8.12105,-6.09079 -14.70949,-12.3064 -21.25391,-19.98437c-1.2252,-1.41434 -2.48672,-2.79764 -3.77343,-4.15625c-0.65098,-0.6961 -1.30196,-1.39219 -1.97266,-2.10938c-0.59812,-0.62391 -1.19625,-1.24781 -1.8125,-1.89062c-1.1875,-1.85938 -1.1875,-1.85938 -0.92847,-3.77686c0.82019,-2.30518 1.7313,-3.49532 3.40894,-5.26221c0.55728,-0.59289 1.11455,-1.18577 1.68872,-1.79663c0.60417,-0.62656 1.20833,-1.25313 1.83081,-1.89868c0.92655,-0.97562 0.92655,-0.97562 1.87183,-1.97095c4.53183,-4.74821 9.12736,-9.43496 13.75317,-14.09155c0.60417,-0.60892 1.20833,-1.21784 1.83081,-1.84521c4.23381,-4.21729 4.23381,-4.21729 5.35669,-4.21729z"/>
  <path id="svg_29" fill="#030000" d="m391,559c7.81716,4.46695 7.81716,4.46695 10.62109,6.29688c12.88294,8.29811 26.04397,15.02734 40.36719,20.47656c3.01172,1.22656 3.01172,1.22656 6.01172,3.22656c-18.81,0 -37.62,0 -57,0c0,-9.9 0,-19.8 0,-30z"/>
  <path id="svg_30" fill="#030000" d="m587,561c0,9.24 0,18.48 0,28c-18.15,0 -36.3,0 -55,0c3.17187,-2.11458 6.12612,-3.27008 9.6875,-4.625c14.3966,-5.6375 29.29201,-12.68921 41.60937,-22.13672c1.70313,-1.23828 1.70313,-1.23828 3.70313,-1.23828z"/>
  <path id="svg_31" fill="#010000" d="m391,393c16.17,0 32.34,0 49,0c-2.44008,1.62672 -4.60529,2.80004 -7.25391,3.99609c-13.04477,5.98838 -26.38229,12.25378 -37.62109,21.32422c-2.125,1.67969 -2.125,1.67969 -4.125,1.67969c0,-8.91 0,-17.82 0,-27z"/>
  <path id="svg_32" fill="#020000" d="m540,393c15.51,0 31.02,0 47,0c0,8.58 0,17.16 0,26c-1.44375,-0.94875 -2.8875,-1.8975 -4.375,-2.875c-13.63637,-8.64277 -27.76416,-15.83637 -42.625,-22.125c0,-0.33 0,-0.66 0,-1z"/>
  <path id="svg_33" fill="#090200" d="m488,450c3.53571,0.53571 3.53571,0.53571 5,2c0.08848,2.52094 0.11527,5.01431 0.09766,7.53516c-0.00142,0.75325 -0.00283,1.5065 -0.00429,2.28257c-0.00562,2.41497 -0.01817,4.82984 -0.03087,7.24477c-0.00501,1.63346 -0.00958,3.26693 -0.01367,4.90039c-0.0102,4.01243 -0.02977,8.02467 -0.04883,12.03711c6.27,0 12.54,0 19,0c0.33,1.65 0.66,3.3 1,5c-2.56989,2.56989 -3.5891,2.25707 -7.15625,2.26563c-1.53334,0.00386 -1.53334,0.00386 -3.09766,0.00781c-1.07121,-0.00774 -2.14242,-0.01547 -3.24609,-0.02344c-1.60682,0.0116 -1.60682,0.0116 -3.24609,0.02344c-1.02223,-0.00258 -2.04446,-0.00516 -3.09766,-0.00781c-0.94037,-0.00226 -1.88074,-0.00452 -2.84961,-0.00684c-2.30664,-0.25879 -2.30664,-0.25879 -4.30664,-2.25879c-0.19998,-2.91749 -0.27975,-5.73802 -0.26563,-8.65625c-0.00191,-0.85807 -0.00382,-1.71615 -0.00579,-2.60022c-0.00137,-1.81572 0.00233,-3.63144 0.01068,-5.44714c0.0107,-2.78522 0.0001,-5.56979 -0.0127,-8.35498c0.00132,-1.76172 0.00389,-3.52344 0.00781,-5.28516c-0.00404,-0.83648 -0.00809,-1.67296 -0.01226,-2.53479c0.04797,-5.89154 0.04797,-5.89154 2.27789,-8.12146z"/>
  <path id="svg_34" fill="#321201" d="m227,480c0,6.93 0,13.86 0,21c-3.32983,-1.66491 -6.1994,-3.39491 -9.25,-5.5c-0.89203,-0.60844 -1.78406,-1.21687 -2.70313,-1.84375c-0.67546,-0.54656 -1.35093,-1.09313 -2.04687,-1.65625c0,-0.66 0,-1.32 0,-2c1.82812,-1.62109 1.82812,-1.62109 4.25,-3.4375c0.78891,-0.59684 1.57781,-1.19367 2.39062,-1.80859c0.7786,-0.57879 1.55719,-1.15758 2.35938,-1.75391c0.73734,-0.56848 1.47469,-1.13695 2.23437,-1.72266c1.76563,-1.27734 1.76563,-1.27734 2.76563,-1.27734z"/>
  <path id="svg_35" fill="#291001" d="m294,295c5.94,0.33 11.88,0.66 18,1c-4.68354,5.64427 -9.62076,11.0058 -15,16c-0.33,0 -0.66,0 -1,0c-0.66,-5.61 -1.32,-11.22 -2,-17z"/>
  <path id="svg_36" fill="#2B1101" d="m251,380c-2.05765,6.45354 -4.42383,12.73613 -7,19c-0.66,0 -1.32,0 -2,0c-2.66667,-5.33333 -5.33333,-10.66667 -8,-16c2.45788,-0.50234 4.91625,-1.00197 7.375,-1.5c1.04801,-0.21463 1.04801,-0.21463 2.11719,-0.43359c5.28125,-1.06641 5.28125,-1.06641 7.50781,-1.06641z"/>
  <path id="svg_37" fill="#2B1101" d="m382,234c11.25,6.02679 11.25,6.02679 15,9c-1.5167,0.79955 -3.03862,1.58921 -4.5625,2.375c-0.84691,0.44086 -1.69383,0.88172 -2.56641,1.33594c-2.87109,1.28906 -2.87109,1.28906 -9.87109,3.28906c0.66,-5.28 1.32,-10.56 2,-16z"/>
  <path id="svg_38" fill="#2A1101" d="m488,213c0.66,0 1.32,0 2,0c1.65625,1.86328 1.65625,1.86328 3.5,4.3125c0.60844,0.80051 1.21687,1.60102 1.84375,2.42578c1.26186,1.72315 2.47153,3.48465 3.65625,5.26172c-5.94,0 -11.88,0 -18,0c1.42373,-2.84745 2.85309,-5.53862 4.5,-8.25c0.63422,-1.05961 0.63422,-1.05961 1.28125,-2.14062c0.60328,-0.79665 0.60328,-0.79665 1.21875,-1.60938z"/>
  <path id="svg_39" fill="#2E1201" d="m242,584c3.275,4.91249 4.92533,10.48574 7,16c-7.425,-0.99 -7.425,-0.99 -15,-2c1.59823,-3.19645 3.27801,-6.19845 5.125,-9.25c0.53883,-0.89203 1.07766,-1.78406 1.63281,-2.70312c0.61489,-1.01321 0.61489,-1.01321 1.24219,-2.04688z"/>
  <path id="svg_40" fill="#2C1101" d="m296,673c3.59635,3.49359 6.83452,7.11098 10,11c-3.96,0.66 -7.92,1.32 -12,2c0.66,-4.29 1.32,-8.58 2,-13z"/>
  <path id="svg_41" fill="#321301" d="m596,234c0.33,3.63 0.66,7.26 1,11c-3.3,-0.99 -6.6,-1.98 -10,-3c0,-0.99 0,-1.98 0,-3c1.46094,-1.38672 1.46094,-1.38672 3.375,-2.6875c0.93973,-0.65549 0.93973,-0.65549 1.89844,-1.32422c1.72656,-0.98828 1.72656,-0.98828 3.72656,-0.98828z"/>
  <path id="svg_42" fill="#2A1101" d="m484,761c4.29,0 8.58,0 13,0c-2.475,4.455 -2.475,4.455 -5,9c-0.66,0 -1.32,0 -2,0c-2.20145,-2.87443 -4.04895,-5.94619 -6,-9z"/>
  <path id="svg_43" fill="#2D1101" d="m382,736c4.95,1.98 4.95,1.98 10,4c-2.96632,2.47193 -5.51237,4.25618 -9,6c-0.33,-3.3 -0.66,-6.6 -1,-10z"/>
  <path id="svg_44" fill="#341302" d="m685,294c0,2.97 0,5.94 0,9c-4.53786,-2.26893 -5.94678,-4.09867 -9,-8c7.875,-1 7.875,-1 9,-1z"/>
  <path id="svg_45" fill="#3C1502" d="m739,382c2.31,0 4.62,0 7,0c-1.293,2.88438 -2.65941,4.87219 -5,7c-0.66,-2.31 -1.32,-4.62 -2,-7z"/>
  <path id="svg_46" fill="#481803" d="m762,486c2.475,0.99 2.475,0.99 5,2c0,0.66 0,1.32 0,2c-2.5,1.625 -2.5,1.625 -5,3c0,-2.31 0,-4.62 0,-7z"/>
  <path id="svg_47" fill="#3E1502" d="m598,740c0,1.98 0,3.96 0,6c-1.32,-0.66 -2.64,-1.32 -4,-2c0,-0.99 0,-1.98 0,-3c3,-1 3,-1 4,-1z"/>
 </g>
</svg>