<?xml version="1.0" encoding="utf-8"?>
<svg xmlns="http://www.w3.org/2000/svg" viewBox="-238.73 224.4949 488.833 496.5892" width="488.833px" height="496.5892px"><g id="object-0"><path id="svg_3" fill="#000000" d="M 2.053 224.507 C 4.593 224.518 7.132 224.507 9.672 224.495 C 67.004 224.441 122.936 246.628 165.594 284.768 C 166.124 285.242 166.654 285.715 167.2 286.203 C 170.705 289.35 174.161 292.543 177.594 295.768 C 178.25 296.382 178.906 296.995 179.582 297.627 C 184.735 302.602 189.135 308.176 193.594 313.768 C 194.471 314.843 195.349 315.917 196.227 316.991 C 232.09 361.211 249.996 416.567 250.094 473.143 C 250.099 474.601 250.099 474.601 250.103 476.089 C 250.101 489.603 249.291 502.71 246.907 516.018 C 246.785 516.704 246.663 517.391 246.537 518.098 C 237.199 569.147 211.762 613.333 176.594 650.768 C 175.674 651.752 175.674 651.752 174.735 652.756 C 169.76 657.908 164.174 662.295 158.594 666.768 C 157.836 667.405 157.078 668.042 156.297 668.698 C 135.205 686.226 111.138 698.225 85.594 707.768 C 84.652 708.125 83.71 708.482 82.739 708.85 C 76.904 711.028 71.082 712.855 65.032 714.331 C 64.18 714.54 63.327 714.75 62.45 714.966 C 56.696 716.347 50.928 717.532 45.094 718.518 C 44.414 718.634 43.734 718.749 43.033 718.868 C 31.017 720.771 18.982 720.982 6.843 721.008 C 4.127 721.018 1.412 721.049 -1.304 721.081 C -13.596 721.154 -25.318 719.948 -37.406 717.768 C -38.605 717.557 -38.605 717.557 -39.829 717.343 C -75.405 711.065 -109.72 695.665 -138.41 673.768 C -138.96 673.353 -139.52 672.937 -140.09 672.509 C -180.21 642.564 -208.56 601.694 -225.41 554.768 C -225.68 554.02 -225.94 553.272 -226.22 552.501 C -230.64 540.074 -233.62 527.626 -235.53 514.581 C -235.7 513.47 -235.87 512.359 -236.04 511.215 C -237.41 502.097 -238.55 493.131 -238.64 483.905 C -238.65 483.083 -238.66 482.261 -238.67 481.415 C -238.7 478.761 -238.71 476.109 -238.72 473.456 C -238.72 472.546 -238.72 471.637 -238.73 470.701 C -238.73 454.736 -237.44 439.473 -234.41 423.768 C -234.26 422.935 -234.11 422.101 -233.95 421.242 C -230.36 401.319 -223.28 381.919 -214.41 363.768 C -214 362.942 -213.6 362.117 -213.19 361.266 C -201.19 336.783 -185.16 315.47 -166.41 295.768 C -165.72 295.042 -165.04 294.317 -164.33 293.569 C -159.08 288.147 -153.3 283.475 -147.41 278.768 C -146.65 278.133 -145.89 277.497 -145.11 276.842 C -116.35 252.931 -81.16 237.186 -44.843 229.018 C -43.971 228.819 -43.098 228.62 -42.199 228.415 C -27.57 225.299 -12.867 224.433 2.053 224.507 Z" style="stroke-width: 1px;"/><path id="svg_4" fill="#DD3D0A" d="M 63.701 367.232 C 69.005 367.293 74.309 367.353 79.614 367.413 C 89.94 367.529 100.267 367.648 110.594 367.768 C 110.546 368.912 110.497 370.055 110.448 371.234 C 110.287 375.537 110.228 379.837 110.197 384.144 C 110.17 385.996 110.117 387.847 110.035 389.698 C 109.384 400.277 109.384 400.277 113.068 409.885 C 116.591 413.676 120.588 416.696 124.869 419.58 C 127.02 421.062 128.918 422.744 130.813 424.538 C 131.364 425.045 131.915 425.552 132.484 426.075 C 147.464 440.084 160.735 455.035 172.594 471.768 C 169.747 477.053 166.532 481.64 162.719 486.268 C 162.153 486.959 161.587 487.649 161.004 488.361 C 154.846 495.793 148.302 502.833 141.594 509.768 C 141.031 510.352 140.469 510.937 139.889 511.539 C 132.833 518.842 125.573 525.474 117.594 531.768 C 115.614 533.418 113.634 535.068 111.594 536.768 C 111.264 550.958 110.934 565.148 110.594 579.768 C 40.634 579.768 -29.326 579.768 -101.41 579.768 C -101.74 564.918 -102.07 550.068 -102.41 534.768 C -106.04 531.798 -109.67 528.828 -113.41 525.768 C -115.58 523.85 -117.73 521.935 -119.84 519.956 C -120.38 519.458 -120.91 518.96 -121.47 518.447 C -129.83 510.614 -138.11 502.622 -145.41 493.768 C -145.87 493.212 -146.32 492.656 -146.8 492.083 C -148.41 490.13 -150 488.169 -151.59 486.206 C -152.36 485.267 -152.36 485.267 -153.14 484.31 C -156.35 480.313 -158.97 476.281 -161.41 471.768 C -149.01 455.346 -135.87 439.612 -120.84 425.518 C -120.27 424.976 -119.69 424.434 -119.1 423.876 C -118.52 423.34 -117.94 422.804 -117.34 422.252 C -116.77 421.714 -116.2 421.175 -115.62 420.619 C -113.41 418.768 -113.41 418.768 -110.66 417.217 C -106.51 414.635 -103.14 412.374 -101.78 407.57 C -100.84 401.146 -101.06 394.679 -101.22 388.206 C -101.23 386.223 -101.23 384.241 -101.22 382.258 C -101.23 377.426 -101.3 372.599 -101.41 367.768 C -89.764 367.636 -78.122 367.505 -66.48 367.377 C -61.071 367.317 -55.661 367.257 -50.252 367.195 C -12.255 366.763 25.704 366.789 63.701 367.232 L 63.701 367.232 Z" style="stroke-width: 1px;"/><path id="svg_13" fill="#230F01" d="M 2.053 224.507 C 4.593 224.518 7.132 224.507 9.672 224.495 C 67.004 224.441 122.936 246.628 165.594 284.768 C 166.124 285.242 166.654 285.715 167.2 286.203 C 170.705 289.35 174.161 292.543 177.594 295.768 C 178.25 296.382 178.906 296.995 179.582 297.627 C 184.735 302.602 189.135 308.176 193.594 313.768 C 194.471 314.843 195.349 315.917 196.227 316.991 C 232.09 361.211 249.996 416.567 250.094 473.143 C 250.099 474.601 250.099 474.601 250.103 476.089 C 250.101 489.603 249.291 502.71 246.907 516.018 C 246.785 516.704 246.663 517.391 246.537 518.098 C 237.199 569.147 211.762 613.333 176.594 650.768 C 175.674 651.752 175.674 651.752 174.735 652.756 C 169.76 657.908 164.174 662.295 158.594 666.768 C 157.836 667.405 157.078 668.042 156.297 668.698 C 135.205 686.226 111.138 698.225 85.594 707.768 C 84.652 708.125 83.71 708.482 82.739 708.85 C 76.904 711.028 71.082 712.855 65.032 714.331 C 64.18 714.54 63.327 714.75 62.45 714.966 C 56.696 716.347 50.928 717.532 45.094 718.518 C 44.414 718.634 43.734 718.749 43.033 718.868 C 31.017 720.771 18.982 720.982 6.843 721.008 C 4.127 721.018 1.412 721.049 -1.304 721.081 C -13.596 721.154 -25.318 719.948 -37.406 717.768 C -38.605 717.557 -38.605 717.557 -39.829 717.343 C -75.405 711.065 -109.72 695.665 -138.41 673.768 C -138.96 673.353 -139.52 672.937 -140.09 672.509 C -180.21 642.564 -208.56 601.694 -225.41 554.768 C -225.68 554.02 -225.94 553.272 -226.22 552.501 C -230.64 540.074 -233.62 527.626 -235.53 514.581 C -235.7 513.47 -235.87 512.359 -236.04 511.215 C -237.41 502.097 -238.55 493.131 -238.64 483.905 C -238.65 483.083 -238.66 482.261 -238.67 481.415 C -238.7 478.761 -238.71 476.109 -238.72 473.456 C -238.72 472.546 -238.72 471.637 -238.73 470.701 C -238.73 454.736 -237.44 439.473 -234.41 423.768 C -234.26 422.935 -234.11 422.101 -233.95 421.242 C -230.36 401.319 -223.28 381.919 -214.41 363.768 C -214 362.942 -213.6 362.117 -213.19 361.266 C -201.19 336.783 -185.16 315.47 -166.41 295.768 C -165.72 295.042 -165.04 294.317 -164.33 293.569 C -159.08 288.147 -153.3 283.475 -147.41 278.768 C -146.65 278.133 -145.89 277.497 -145.11 276.842 C -116.35 252.931 -81.16 237.186 -44.843 229.018 C -43.971 228.819 -43.098 228.62 -42.199 228.415 C -27.57 225.299 -12.867 224.433 2.053 224.507 Z M -40.406 239.768 C -41.844 240.084 -43.283 240.4 -44.722 240.713 C -48.653 241.605 -52.532 242.657 -56.406 243.768 C -57.114 243.966 -57.823 244.164 -58.552 244.368 C -106.31 257.876 -150.01 287.66 -179.41 327.768 C -179.83 328.337 -180.25 328.907 -180.69 329.493 C -200.01 355.406 -214.02 384.996 -221.72 416.393 C -221.95 417.333 -222.18 418.273 -222.42 419.241 C -226.17 435.506 -227.89 451.462 -227.74 468.142 C -227.72 470.965 -227.72 473.787 -227.73 476.61 C -227.71 491.409 -226.42 505.789 -223.59 520.331 C -223.42 521.215 -223.25 522.099 -223.07 523.01 C -221.59 530.376 -219.63 537.493 -217.16 544.591 C -216.63 546.137 -216.1 547.686 -215.58 549.238 C -206.49 576.338 -193.08 600.385 -175.41 622.768 C -174.96 623.331 -174.52 623.894 -174.06 624.474 C -162.51 638.94 -149.33 651.829 -134.41 662.768 C -133.84 663.193 -133.27 663.618 -132.68 664.055 C -92.563 693.96 -45.264 709.97 4.782 710.018 C 5.892 710.02 5.892 710.02 7.025 710.021 C 58.754 709.974 109.314 692.443 149.594 659.768 C 150.186 659.29 150.778 658.813 151.388 658.321 C 164.682 647.497 177.257 635.475 187.594 621.768 C 188.081 621.125 188.568 620.483 189.069 619.82 C 197.034 609.242 204.337 598.445 210.594 586.768 C 211.029 585.959 211.464 585.15 211.913 584.316 C 224.011 561.421 233.318 535.529 236.594 509.768 C 236.854 507.828 236.854 507.828 237.118 505.849 C 238.433 495.503 238.881 485.313 238.8 474.889 C 238.781 472.439 238.779 469.99 238.78 467.54 C 238.751 453.575 237.792 440.181 235.032 426.456 C 234.902 425.81 234.773 425.165 234.64 424.501 C 230.7 405.076 224.312 386.562 215.594 368.768 C 215.183 367.926 214.772 367.085 214.348 366.218 C 208.336 354.05 201.714 342.647 193.594 331.768 C 192.913 330.854 192.913 330.854 192.219 329.922 C 185.828 321.418 178.96 313.438 171.594 305.768 C 170.865 305.006 170.865 305.006 170.121 304.229 C 163.352 297.196 156.359 290.708 148.594 284.768 C 147.99 284.298 147.385 283.828 146.762 283.344 C 126.621 267.791 104.549 256.252 80.594 247.768 C 79.184 247.264 79.184 247.264 77.746 246.75 C 40.795 233.812 -2.154 230.61 -40.406 239.768 Z" style="stroke-width: 1px;"/><path id="svg_22" fill="#040100" d="M 39.594 394.768 C 40.499 395.101 41.404 395.435 42.336 395.778 C 60.606 402.655 77.536 411.484 92.913 423.577 C 94.582 424.841 94.582 424.841 96.613 425.674 C 99.311 427.092 100.768 428.3 102.594 430.768 C 103.951 436.828 103.942 442.864 103.973 449.053 C 104.001 450.874 104.031 452.696 104.061 454.517 C 104.113 458.334 104.132 462.15 104.131 465.968 C 104.135 469.867 104.198 473.758 104.316 477.656 C 105.334 511.639 105.334 511.639 99.011 519.085 C 95.617 522.063 92.039 524.05 87.877 525.761 C 84.605 527.204 81.747 529.157 78.786 531.148 C 53.631 547.825 26.601 555.622 -3.406 554.768 C -3.406 554.438 -3.406 554.108 -3.406 553.768 C -2.388 553.742 -1.369 553.716 -0.32 553.69 C 22.226 552.89 42.758 547.509 59.594 531.768 C 60.223 531.229 60.852 530.69 61.5 530.135 C 70.465 522.026 76.768 510.082 80.594 498.768 C 80.912 497.858 81.231 496.948 81.559 496.01 C 87.54 475.339 84.445 452.423 74.214 433.783 C 64.396 416.758 50.614 405.997 32.594 398.768 C 31.345 398.263 31.345 398.263 30.071 397.749 C 10.984 390.755 -9.993 392.939 -28.406 400.768 C -36.259 404.411 -42.907 409.073 -49.406 414.768 C -50.094 415.361 -50.783 415.954 -51.492 416.565 C -63.914 428.054 -73.372 446.416 -74.593 463.368 C -74.673 466.13 -74.684 468.88 -74.656 471.643 C -74.649 472.616 -74.642 473.589 -74.635 474.592 C -74.541 481.165 -74.2 487.412 -72.406 493.768 C -72.149 494.712 -71.893 495.655 -71.629 496.627 C -65.327 517.508 -51.912 533.748 -32.816 544.014 C -23.907 548.596 -15.25 550.896 -5.406 552.768 C -5.406 553.098 -5.406 553.428 -5.406 553.768 C -11.824 554.065 -17.138 553.084 -23.281 551.268 C -24.657 550.864 -24.657 550.864 -26.062 550.452 C -46.924 544.109 -66.443 533.434 -83.406 519.768 C -84.205 519.319 -85.005 518.871 -85.828 518.409 C -90.37 515.544 -92.981 513.375 -94.384 508.071 C -94.925 503.421 -94.905 498.768 -94.875 494.092 C -94.892 492.359 -94.911 490.625 -94.932 488.892 C -94.965 485.266 -94.96 481.642 -94.929 478.016 C -94.895 473.393 -94.969 468.78 -95.074 464.158 C -95.14 460.579 -95.141 457.002 -95.124 453.423 C -95.124 451.721 -95.147 450.018 -95.192 448.317 C -95.488 435.455 -95.488 435.455 -92.017 430.975 C -88.228 427.252 -83.934 424.508 -79.406 421.768 C -78.012 420.786 -76.624 419.797 -75.25 418.788 C -74.14 418.044 -73.026 417.308 -71.906 416.581 C -71.287 416.175 -70.668 415.77 -70.03 415.353 C -38.612 394.995 2.563 380.92 39.594 394.768 L 39.594 394.768 Z" style="stroke-width: 1px;"/><path id="svg_23" fill="#D83C0A" d="M 56.594 411.268 C 70.952 423.747 82.603 441.499 84.594 460.768 C 86.097 484.766 82.733 506.846 66.586 525.6 C 65.929 526.316 65.271 527.031 64.594 527.768 C 63.957 528.473 63.32 529.178 62.664 529.905 C 46.447 547.001 25.057 553.403 2.157 554.643 C 0.797 554.717 0.797 554.717 -0.59 554.793 C -7.021 555.025 -7.021 555.025 -10.406 552.768 C -12.646 552.188 -14.898 551.653 -17.156 551.143 C -35.509 546.564 -52.519 534.44 -62.601 518.374 C -74.394 498.7 -79.38 475.538 -73.906 452.893 C -70.041 440.577 -64.153 429.302 -55.406 419.768 C -54.742 419.013 -54.078 418.257 -53.394 417.479 C -24.506 386.401 23.969 385.613 56.594 411.268 Z M -52.406 427.768 C -65.591 445.546 -69.914 465.219 -67.113 487.051 C -63.888 505.206 -53.111 521.795 -38.406 532.768 C -20.507 544.79 -1.458 548.862 19.973 545.104 C 33.072 541.962 44.61 535.765 54.594 526.768 C 55.545 525.939 55.545 525.939 56.516 525.092 C 70.053 512.544 76.274 493.951 77.946 475.991 C 78.433 456.308 70.972 437.211 57.649 422.733 C 42.637 408.378 23.58 400.047 2.821 400.363 C -19.054 401.234 -38.272 411.191 -52.406 427.768 Z" style="stroke-width: 1px;"/><path id="svg_24" fill="#060100" d="M 52.032 417.518 C 66.713 430.568 76.469 449.01 77.789 468.678 C 78.474 488.544 71.984 507.921 58.594 522.768 C 57.852 523.648 57.852 523.648 57.094 524.545 C 46.195 536.562 28.933 544.599 12.883 546.006 C -9.273 547.042 -26.668 542.791 -43.843 528.104 C -56.75 516.339 -66.415 500.071 -67.567 482.28 C -67.921 460.308 -64.632 441.587 -49.406 424.768 C -48.837 424.108 -48.269 423.448 -47.683 422.768 C -21.305 394.094 22.562 394.286 52.032 417.518 Z M -43.343 429.362 C -55.246 443.248 -60.634 459.671 -59.406 477.768 C -57.608 490.678 -53.292 502.358 -45.406 512.768 C -44.917 513.433 -44.429 514.098 -43.925 514.784 C -35.011 525.965 -20.419 534.29 -6.406 536.768 C 12.867 538.572 30.911 535.725 46.465 523.514 C 52.561 518.229 57.44 512.68 61.594 505.768 C 62.054 505.013 62.514 504.257 62.989 503.479 C 71.283 488.493 72.825 471.046 68.499 454.621 C 65.139 443.166 59.042 434.101 50.594 425.768 C 49.884 425.047 49.174 424.327 48.442 423.584 C 35.556 411.258 19.481 407.435 2.18 407.62 C -16.22 408.381 -30.687 416.163 -43.343 429.362 Z" style="stroke-width: 1px;"/><path id="svg_25" fill="#D83C0A" d="M 50.223 425.014 C 62.248 436.195 69.649 451.657 70.832 468.073 C 71.236 487.508 65.136 504.52 51.594 518.768 C 38.823 531.092 22.902 537.394 5.219 537.206 C 4.214 537.198 3.209 537.19 2.173 537.183 C -14.832 536.806 -29.202 529.539 -41.406 517.768 C -54.05 503.396 -59.881 486.618 -59.679 467.584 C -58.319 448.602 -48.723 434.137 -35.121 421.674 C -9.397 400.386 25.887 404.222 50.223 425.014 Z M -38.406 434.768 C -49.511 449.185 -53.261 464.901 -51.406 482.768 C -48.337 497.681 -38.925 510.926 -26.656 519.745 C -13.187 528.163 1.176 530.926 16.713 527.635 C 32.095 523.98 44.317 515.723 53.063 502.44 C 61.26 488.137 64.197 472.741 60.032 456.581 C 54.918 440.813 44.98 429.01 30.379 421.135 C 24.245 418.124 18.478 416.132 11.594 415.768 C 10.404 415.704 9.214 415.639 7.989 415.573 C -10.081 414.914 -26.035 421.361 -38.406 434.768 Z" style="stroke-width: 1px;"/><path id="svg_26" fill="#090200" d="M 38.344 426.081 C 39.779 427.288 41.197 428.517 42.594 429.768 C 43.282 430.364 43.971 430.959 44.68 431.573 C 54.93 441.038 60.558 453.668 61.973 467.463 C 62.489 483.418 57.689 497.885 47.344 510.018 C 35.596 522.394 20.774 528.559 3.844 529.143 C -11.334 528.863 -24.271 522.932 -35.218 512.581 C -40.369 507.148 -44.179 501.512 -47.406 494.768 C -47.839 493.87 -48.272 492.971 -48.718 492.045 C -53.597 480.002 -53.092 464.749 -48.664 452.655 C -41.606 436.457 -31.354 425.694 -14.972 418.768 C 2.099 412.116 23.673 415.02 38.344 426.081 Z M -34.406 439.768 C -43.372 451.857 -46.684 464.952 -45.406 479.768 C -42.816 493.368 -35.687 505.462 -24.281 513.393 C -11.398 522.017 2.362 524.332 17.719 521.356 C 30.074 518.014 40.982 509.762 47.782 499.018 C 48.745 497.282 49.683 495.532 50.594 493.768 C 51.01 493.005 51.427 492.242 51.856 491.456 C 56.829 480.568 56.556 464.916 52.719 453.706 C 45.878 439.001 35.315 429.745 20.356 423.713 C 0.344 416.863 -20.509 424.65 -34.406 439.768 Z" style="stroke-width: 1px;"/><path id="svg_27" fill="#020000" d="M 110.594 438.768 C 114.738 442.32 118.648 445.695 122.477 449.518 C 123.763 450.802 123.763 450.802 125.075 452.112 C 126.384 453.427 126.384 453.427 127.719 454.768 C 128.599 455.645 129.48 456.521 130.387 457.424 C 132.811 459.852 135.212 462.299 137.594 464.768 C 138.176 465.369 138.759 465.969 139.359 466.588 C 142.572 470.119 142.572 470.119 142.664 472.846 C 141.231 475.42 139.487 477.37 137.469 479.518 C 136.651 480.4 135.832 481.281 134.989 482.19 C 134.198 483.041 133.408 483.892 132.594 484.768 C 131.443 486.097 130.296 487.43 129.157 488.768 C 123.526 495.213 117.962 501.348 110.594 505.768 C 110.594 483.658 110.594 461.548 110.594 438.768 Z" style="stroke-width: 1px;"/><path id="svg_28" fill="#010000" d="M -101.41 440.768 C -101.41 461.558 -101.41 482.348 -101.41 503.768 C -109.53 497.677 -116.11 491.462 -122.66 483.784 C -123.89 482.369 -125.15 480.986 -126.43 479.627 C -127.08 478.931 -127.73 478.235 -128.41 477.518 C -129 476.894 -129.6 476.27 -130.22 475.627 C -131.41 473.768 -131.41 473.768 -131.15 471.851 C -130.33 469.545 -129.42 468.355 -127.74 466.588 C -127.18 465.995 -126.62 465.403 -126.05 464.792 C -125.44 464.165 -124.84 463.539 -124.22 462.893 C -123.29 461.917 -123.29 461.917 -122.35 460.922 C -117.81 456.174 -113.22 451.487 -108.59 446.831 C -107.99 446.222 -107.39 445.613 -106.76 444.985 C -102.53 440.768 -102.53 440.768 -101.41 440.768 Z" style="stroke-width: 1px;"/><path id="svg_29" fill="#030000" d="M -93.406 541.768 C -85.589 546.235 -85.589 546.235 -82.785 548.065 C -69.902 556.363 -56.741 563.092 -42.418 568.542 C -39.406 569.768 -39.406 569.768 -36.406 571.768 C -55.216 571.768 -74.026 571.768 -93.406 571.768 C -93.406 561.868 -93.406 551.968 -93.406 541.768 Z" style="stroke-width: 1px;"/><path id="svg_30" fill="#030000" d="M 102.594 543.768 C 102.594 553.008 102.594 562.248 102.594 571.768 C 84.444 571.768 66.294 571.768 47.594 571.768 C 50.766 569.654 53.72 568.498 57.282 567.143 C 71.678 561.506 86.574 554.454 98.891 545.006 C 100.594 543.768 100.594 543.768 102.594 543.768 Z" style="stroke-width: 1px;"/><path id="svg_31" fill="#010000" d="M -93.406 375.768 C -77.236 375.768 -61.066 375.768 -44.406 375.768 C -46.846 377.395 -49.011 378.568 -51.66 379.764 C -64.705 385.753 -78.042 392.018 -89.281 401.088 C -91.406 402.768 -91.406 402.768 -93.406 402.768 C -93.406 393.858 -93.406 384.948 -93.406 375.768 Z" style="stroke-width: 1px;"/><path id="svg_32" fill="#020000" d="M 55.594 375.768 C 71.104 375.768 86.614 375.768 102.594 375.768 C 102.594 384.348 102.594 392.928 102.594 401.768 C 101.15 400.819 99.707 399.871 98.219 398.893 C 84.583 390.25 70.455 383.057 55.594 376.768 C 55.594 376.438 55.594 376.108 55.594 375.768 Z" style="stroke-width: 1px;"/><path id="svg_33" fill="#090200" d="M 3.594 432.768 C 7.13 433.304 7.13 433.304 8.594 434.768 C 8.683 437.289 8.709 439.782 8.692 442.303 C 8.69 443.056 8.689 443.81 8.687 444.586 C 8.682 447.001 8.669 449.416 8.657 451.831 C 8.652 453.464 8.647 455.098 8.643 456.731 C 8.633 460.743 8.613 464.756 8.594 468.768 C 14.864 468.768 21.134 468.768 27.594 468.768 C 27.924 470.418 28.254 472.068 28.594 473.768 C 26.024 476.338 25.005 476.025 21.438 476.034 C 19.904 476.038 19.904 476.038 18.34 476.042 C 17.269 476.034 16.198 476.026 15.094 476.018 C 13.487 476.03 13.487 476.03 11.848 476.042 C 10.826 476.039 9.803 476.036 8.75 476.034 C 7.81 476.031 6.87 476.029 5.901 476.027 C 3.594 475.768 3.594 475.768 1.594 473.768 C 1.394 470.851 1.314 468.03 1.328 465.112 C 1.327 464.254 1.325 463.396 1.323 462.512 C 1.321 460.696 1.325 458.88 1.333 457.064 C 1.344 454.279 1.333 451.495 1.321 448.709 C 1.322 446.948 1.324 445.186 1.328 443.424 C 1.324 442.588 1.32 441.751 1.316 440.89 C 1.364 434.998 1.364 434.998 3.594 432.768 Z" style="stroke-width: 1px;"/><g><path style="stroke: rgb(0, 0, 0); transform-origin: 73.979px 378.891px 0px;" d="M 17.906 334.593 C 17.906 334.593 83.402 392.751 138.912 390.602 C 194.422 388.453 95.937 423.192 95.937 423.192 L -7.92 390.602 L 17.906 334.593 Z" transform="matrix(-1, 0, 0, -1, 0, 0)"/><path style="stroke: rgb(0, 0, 0); stroke-width: 1px;" d="M -118.79 423.299 C -118.79 423.299 -53.29 365.141 2.22 367.29 C 57.73 369.439 -40.755 334.7 -40.755 334.7 L -144.61 367.29 L -118.79 423.299 Z"/></g><g transform="matrix(1, 0, 0, -1, -0.298875, 945.925476)" style=""><path style="stroke: rgb(0, 0, 0); transform-origin: 73.979px 378.891px 0px;" d="M 17.906 334.593 C 17.906 334.593 83.402 392.751 138.912 390.602 C 194.422 388.453 95.937 423.192 95.937 423.192 L -7.92 390.602 L 17.906 334.593 Z" transform="matrix(-1, 0, 0, -1, 0, 0)"/><path style="stroke: rgb(0, 0, 0); stroke-width: 1px;" d="M -118.79 423.299 C -118.79 423.299 -53.29 365.141 2.22 367.29 C 57.73 369.439 -40.755 334.7 -40.755 334.7 L -144.61 367.29 L -118.79 423.299 Z"/></g></g></svg>