<?xml version="1.0" encoding="UTF-8"?>
<svg id="Layer_2" data-name="Layer 2" xmlns="http://www.w3.org/2000/svg" viewBox="0 0 82.48 80.19">
  <defs>
    <style>
      .cls-1 {
        fill: #e03c3d;
        stroke-width: 0px;
      }
    </style>
  </defs>
  <g id="OBJECTS">
    <path class="cls-1" d="M41.24,36.14c3.46,0,6.27,2.81,6.27,6.27s-2.81,6.27-6.27,6.27-6.27-2.81-6.27-6.27,2.81-6.27,6.27-6.27ZM35.94,36.8c.23-.22.48-.41.73-.6-.03-.05-.07-.1-.09-.16-2.41-6.48-4.84-15.24-3.45-21.67-.54-.49-.75-1.28-.45-1.98.38-.89,1.41-1.31,2.3-.93.89.38,1.31,1.41.93,2.3-.24.56-.73.93-1.29,1.04-1.27,6.01,1.06,14.38,3.37,20.62.34-.16.7-.3,1.07-.41-.01-.06-.03-.11-.04-.17-.03-3.56.17-6.82.55-9.77-.53-.38-.84-1.03-.72-1.71.16-.96,1.06-1.61,2.01-1.45.96.16,1.61,1.06,1.45,2.01-.11.67-.59,1.19-1.2,1.38-.37,2.84-.55,6-.53,9.43.21-.02.42-.03.64-.03.6,0,1.19.08,1.75.21,3.03-7.05,8.37-17,15.11-19.19.35-.11.7-.22,1.06-.31C57.83,6.55,50.28,0,41.24,0c-9.99,0-18.12,8.13-18.12,18.12,0,6.24,7.33,13.85,12.82,18.68ZM15.63,52.59h0c5.83,0,13.36-3.75,18.62-6.87-.14-.29-.25-.58-.35-.89-.06.02-.11.04-.17.04-1.16.05-2.37.08-3.63.08-6.23,0-13.32-.74-18.05-3.5-.63.36-1.44.32-2.02-.19-.73-.63-.81-1.74-.18-2.48.63-.73,1.74-.81,2.48-.18.46.4.66.98.59,1.55,5.32,3.06,13.99,3.44,20.64,3.16-.04-.3-.06-.6-.06-.91,0-.08.01-.15.02-.23-.06,0-.12,0-.18-.03-3.39-1.07-6.44-2.27-9.13-3.54-.52.39-1.24.48-1.85.16-.86-.44-1.2-1.5-.76-2.36.44-.86,1.5-1.2,2.36-.76.61.31.95.93.94,1.57,2.59,1.23,5.54,2.38,8.81,3.42.19-.79.48-1.54.89-2.22-5.77-5.06-13.58-13.22-13.58-20.31,0-.37.01-.73.03-1.1-.97-.16-1.96-.24-2.94-.24-7.87,0-14.8,5.03-17.23,12.53-1.5,4.6-1.11,9.51,1.09,13.83,2.2,4.31,5.94,7.51,10.55,9.01.91.3,1.95.44,3.1.44ZM81.58,29.31c-2.43-7.49-9.36-12.53-17.23-12.53-1.9,0-3.78.3-5.61.89-5.94,1.93-10.91,11.25-13.8,17.96.28.15.55.33.81.51.04-.04.06-.09.11-.13,5.41-4.3,12.98-9.31,19.55-9.97.3-.66.98-1.1,1.75-1.04.97.08,1.68.93,1.6,1.9-.08.97-.93,1.68-1.9,1.6-.61-.05-1.12-.41-1.39-.91-6.11.64-13.35,5.45-18.57,9.59.26.28.5.58.72.89.05-.03.1-.07.15-.09,3.37-1.12,6.54-1.95,9.47-2.5.19-.62.72-1.11,1.4-1.22.96-.15,1.85.51,2,1.47.15.96-.51,1.85-1.47,2-.68.1-1.31-.2-1.69-.72-2.82.53-5.88,1.33-9.14,2.41.31.73.52,1.51.58,2.33,7.66.71,18.77,2.72,22.92,8.44.21.29.42.6.62.91,7.99-3.99,11.89-13.2,9.1-21.8ZM42.22,50.08c-.31.04-.63.07-.95.07,0,.06,0,.11-.01.17-1.86,6.66-5.05,15.17-9.95,19.56.15.71-.14,1.47-.8,1.87-.83.5-1.91.23-2.41-.6-.5-.83-.23-1.91.6-2.41.52-.31,1.14-.33,1.65-.09,4.56-4.11,7.59-12.25,9.39-18.66-.38-.08-.75-.18-1.11-.3-.02.05-.04.11-.07.16-2.07,2.89-4.14,5.42-6.19,7.58.21.62.07,1.32-.42,1.81-.69.68-1.8.68-2.48-.01-.68-.69-.68-1.8.01-2.48.49-.48,1.18-.61,1.79-.41,1.97-2.09,3.97-4.53,5.97-7.32-.69-.42-1.31-.94-1.83-1.55-5.47,3.25-13.39,7.19-19.77,7.19-1.37,0-2.63-.18-3.74-.55-.35-.11-.69-.24-1.04-.37-4.12,7.93-1.86,17.67,5.45,22.98,3.12,2.27,6.8,3.46,10.64,3.46,5.79,0,11.28-2.79,14.68-7.47,3.67-5.05,2.21-15.52.61-22.65ZM48.83,43.85c-.06.31-.14.62-.23.92.05.02.11.03.16.07,5.76,3.82,12.87,9.49,15.53,15.51.72.08,1.35.59,1.53,1.34.22.94-.37,1.89-1.31,2.11-.94.22-1.89-.37-2.11-1.31-.14-.59.04-1.18.43-1.6-2.5-5.61-9.31-11.01-14.85-14.7-.19.33-.39.66-.63.96.05.04.1.07.13.12,2.11,2.86,3.88,5.62,5.3,8.23.65,0,1.28.34,1.59.96.44.87.09,1.92-.78,2.36-.87.44-1.92.09-2.36-.78-.31-.61-.22-1.31.16-1.83-1.38-2.52-3.08-5.18-5.12-7.95-.6.52-1.28.96-2.03,1.28,1.69,7.48,3.22,18.67-.95,24.4-.21.29-.44.59-.67.87,3.39,3.43,8.04,5.38,12.9,5.38h0c3.84,0,7.52-1.2,10.64-3.46,3.92-2.85,6.49-7.05,7.25-11.83.76-4.78-.39-9.57-3.24-13.49-3.66-5.04-14.06-6.89-21.35-7.57Z"/>
  </g>
</svg>