<?xml version="1.0" encoding="UTF-8"?>
<svg id="Layer_2" data-name="Layer 2" xmlns="http://www.w3.org/2000/svg" viewBox="0 0 84.89 82.27">
  <defs>
    <style>
      .cls-1 {
        fill: #e03c3d;
        stroke-width: 0px;
      }
    </style>
  </defs>
  <g id="OBJECTS">
    <path class="cls-1" d="M74.03,50.07c8.25-2.68,12.77-11.54,10.09-19.8-2.68-8.25-11.54-12.77-19.8-10.09-4.1,1.33-9.52,7.17-13.95,12.71,3.9-5.92,7.78-12.88,7.78-17.19,0-8.68-7.03-15.71-15.71-15.71s-15.71,7.03-15.71,15.71c0,4.31,3.88,11.27,7.78,17.19-4.42-5.54-9.85-11.38-13.95-12.71-8.25-2.68-17.11,1.83-19.8,10.09-2.68,8.25,1.83,17.11,10.09,19.8,4.1,1.33,11.92-.2,18.75-2.09-6.64,2.49-13.87,5.85-16.4,9.34-5.1,7.02-3.54,16.84,3.48,21.94,7.02,5.1,16.84,3.54,21.94-3.48,2.53-3.49,3.49-11.4,3.81-18.48.32,7.08,1.28,14.99,3.81,18.48,5.1,7.02,14.92,8.58,21.94,3.48,7.02-5.1,8.58-14.92,3.48-21.94-2.53-3.49-9.76-6.84-16.4-9.34,6.83,1.88,14.66,3.42,18.75,2.09ZM64.68,42.95c.55,0,1,.45.99,1.01,0,.55-.45.99-1,.99h0l-19.09-.12,15.51,11.13c.45.32.55.95.23,1.4-.2.27-.5.42-.81.42-.2,0-.41-.06-.58-.19l-13.03-9.35,10.26,14.12c.32.45.23,1.07-.22,1.4-.18.13-.38.19-.59.19-.31,0-.61-.14-.81-.41l-10.26-14.12,4.86,15.28c.17.53-.12,1.09-.65,1.26-.1.03-.2.05-.3.05-.42,0-.82-.27-.95-.7l-5.79-18.19-5.79,18.19c-.14.42-.53.7-.95.7-.1,0-.2-.01-.3-.05-.53-.17-.82-.73-.65-1.26l4.86-15.28-10.26,14.12c-.2.27-.5.41-.81.41-.2,0-.41-.06-.59-.19-.45-.32-.55-.95-.22-1.4l10.26-14.12-13.03,9.35c-.18.13-.38.19-.58.19-.31,0-.62-.14-.81-.42-.32-.45-.22-1.07.23-1.4l15.51-11.13-19.09.12h0c-.55,0-1-.44-1-.99,0-.55.44-1,.99-1.01l16.04-.1-16.6-5.39c-.53-.17-.81-.74-.64-1.26.17-.52.73-.81,1.26-.64l16.6,5.39-12.92-9.5c-.44-.33-.54-.95-.21-1.4.33-.45.95-.54,1.4-.21l15.37,11.31-6.01-18.12c-.17-.52.11-1.09.63-1.26.53-.17,1.09.11,1.26.63l5.05,15.22v-17.46c0-.55.45-1,1-1s1,.45,1,1v17.46l5.05-15.22c.17-.52.74-.81,1.26-.63.52.17.81.74.63,1.26l-6.01,18.12,15.37-11.31c.45-.33,1.07-.23,1.4.21.33.45.23,1.07-.21,1.4l-12.92,9.5,16.6-5.39c.53-.17,1.09.12,1.26.64.17.52-.12,1.09-.64,1.26l-16.6,5.39,16.04.1Z"/>
  </g>
</svg>