<?xml version="1.0" encoding="UTF-8"?>
<svg id="Layer_2" data-name="Layer 2" xmlns="http://www.w3.org/2000/svg" viewBox="0 0 83.27 81.12">
  <defs>
    <style>
      .cls-1 {
        fill: #e03c3d;
        stroke-width: 0px;
      }
    </style>
  </defs>
  <g id="OBJECTS">
    <g>
      <path class="cls-1" d="M43.45,45.33l.08-.06s-.03.02-.04.03c-.01,0-.03.02-.04.03Z"/>
      <path class="cls-1" d="M44.63,41.78s0,0,0,.01v-.03s0,0,0,.01Z"/>
      <path class="cls-1" d="M82.29,29.54c-2.98-9.17-12.01-14.67-21.23-13.53.24,1.23.37,2.49.37,3.79,0,9.75-7.06,17.82-16.34,19.46l10.04-13.82c.61.1,1.26-.13,1.65-.67.55-.76.38-1.81-.37-2.36-.76-.55-1.81-.38-2.36.37-.39.54-.41,1.22-.13,1.77l-10.04,13.82c-1.31-9.33,4.19-18.54,13.46-21.56,1.23-.4,2.48-.67,3.72-.82C59.29,6.89,51.27,0,41.63,0s-17.66,6.89-19.43,16.01c1.24.15,2.49.42,3.72.82,9.27,3.01,14.77,12.22,13.46,21.56l-10.04-13.82c.29-.55.26-1.24-.13-1.77-.55-.76-1.61-.92-2.36-.37-.76.55-.92,1.61-.37,2.36.39.54,1.04.77,1.65.67l10.04,13.82c-9.28-1.64-16.34-9.71-16.34-19.46,0-1.3.13-2.56.37-3.79C12.98,14.87,3.95,20.37.97,29.54c-2.98,9.17,1.09,18.92,9.22,23.43.53-1.13,1.17-2.24,1.93-3.29,5.73-7.89,16.19-10.27,24.66-6.14l-16.25,5.28c-.44-.44-1.1-.63-1.73-.43-.89.29-1.37,1.24-1.09,2.13.29.89,1.24,1.37,2.13,1.09.63-.2,1.05-.75,1.14-1.36l16.25-5.28c-4.43,8.32-14.29,12.54-23.56,9.53-1.23-.4-2.4-.92-3.49-1.53-3.93,8.42-1.49,18.71,6.31,24.37,7.8,5.67,18.34,4.81,25.13-1.53-.91-.85-1.77-1.8-2.53-2.85-5.73-7.89-4.76-18.57,1.78-25.35v17.09c-.56.28-.94.85-.94,1.51,0,.93.76,1.69,1.69,1.69s1.69-.76,1.69-1.69c0-.66-.39-1.23-.94-1.51v-17.09c6.54,6.78,7.51,17.46,1.78,25.35-.76,1.05-1.62,2-2.53,2.85,6.79,6.34,17.33,7.2,25.13,1.53,7.8-5.67,10.24-15.95,6.31-24.37-1.09.61-2.26,1.12-3.49,1.53-9.27,3.01-19.13-1.21-23.56-9.53l16.25,5.28c.09.61.51,1.16,1.14,1.36.89.29,1.84-.2,2.13-1.09.29-.89-.2-1.84-1.09-2.13-.63-.2-1.29-.01-1.73.43l-16.25-5.28c8.47-4.13,18.93-1.75,24.66,6.14.76,1.05,1.4,2.15,1.93,3.29,8.13-4.5,12.2-14.26,9.22-23.43ZM69.04,35.63c-.63.21-1.29.01-1.73-.43l-22.43,7.29c.2.52.41,1.03.64,1.53,0,0,0,0,0,0h0s0,0,0,0c-.48.27-.95.56-1.42.86l13.86,19.08c.61-.1,1.26.13,1.65.67.55.76.38,1.81-.37,2.36-.76.55-1.81.38-2.36-.37-.39-.54-.41-1.22-.13-1.77l-13.86-19.08c-.43.35-.86.71-1.26,1.08,0,0,0,0,0,0h0s0,0,0,0c0,0,0,0,0,0-.4-.37-.82-.73-1.26-1.08l-13.86,19.08c.29.55.26,1.24-.13,1.77-.55.76-1.61.92-2.36.37s-.92-1.61-.37-2.36c.39-.54,1.04-.77,1.65-.67l13.86-19.08c-.47-.31-.94-.6-1.42-.86,0,0,0,0,0,0h0s0,0,0,0c0,0,0,0,0,0,.23-.5.44-1.01.64-1.53l-22.43-7.29c-.44.44-1.1.63-1.73.43-.89-.29-1.37-1.24-1.09-2.13.29-.89,1.24-1.38,2.13-1.09.63.2,1.05.75,1.14,1.36l22.43,7.29c.15-.54.28-1.08.38-1.61.55.07,1.1.11,1.65.13V16c-.56-.28-.94-.85-.94-1.51,0-.93.76-1.69,1.69-1.69s1.69.76,1.69,1.69c0,.66-.39,1.23-.94,1.51v23.58c.56-.03,1.11-.07,1.65-.13,0,0,0,0,0,0h0s0,0,0,0c.11.54.24,1.08.38,1.61l22.43-7.29c.09-.61.51-1.16,1.14-1.36.89-.29,1.84.2,2.13,1.09.29.89-.2,1.84-1.09,2.13Z"/>
      <path class="cls-1" d="M38.63,41.8s0-.01,0-.02c0,0,0-.01,0-.02v.03Z"/>
      <path class="cls-1" d="M39.74,45.27l.08.06s-.03-.02-.04-.03c-.01-.01-.03-.02-.04-.03Z"/>
    </g>
  </g>
</svg>