<?xml version="1.0" encoding="UTF-8"?>
<svg id="Layer_2" data-name="Layer 2" xmlns="http://www.w3.org/2000/svg" viewBox="0 0 82.17 80.19">
  <defs>
    <style>
      .cls-1 {
        fill: #e03c3d;
        stroke-width: 0px;
      }
    </style>
  </defs>
  <g id="OBJECTS">
    <path class="cls-1" d="M21.06,14.55C23.8,6.11,31.73,0,41.08,0s17.28,6.11,20.02,14.55c-2.15,0-4.34.32-6.5,1.03-6.68,2.17-11.51,7.37-13.52,13.58-2-6.21-6.84-11.41-13.52-13.58-2.16-.7-4.35-1.02-6.5-1.03ZM28.77,38.11c-5.29-3.82-8.74-10.03-8.74-17.05,0-2.27.37-4.45,1.03-6.5-8.88,0-17.14,5.64-20.03,14.54-2.89,8.9.47,18.32,7.65,23.54.67-2.05,1.65-4.03,2.98-5.87,4.13-5.68,10.57-8.67,17.1-8.66ZM36.43,71.52c-4.13-5.68-4.98-12.73-2.95-18.93-5.27,3.85-12.24,5.21-18.92,3.04-2.16-.7-4.12-1.73-5.86-2.99-2.75,8.44.07,18.04,7.64,23.54,7.57,5.5,17.57,5.21,24.75,0-1.74-1.27-3.32-2.81-4.66-4.65ZM28.77,38.11c3.47,2.51,7.71,4,12.31,4-3.72-2.71-8.04-3.99-12.31-4ZM48.69,52.58c2.03,6.2,1.18,13.25-2.95,18.93-1.33,1.84-2.92,3.38-4.66,4.65,7.18,5.22,17.18,5.51,24.75,0,7.57-5.5,10.39-15.1,7.64-23.54-1.74,1.27-3.7,2.29-5.86,2.99-6.68,2.17-13.65.8-18.92-3.04ZM33.47,52.58c3.45-2.52,6.19-6.1,7.61-10.47-3.72,2.71-6.28,6.41-7.61,10.47ZM81.13,29.1c-2.89-8.9-11.15-14.55-20.03-14.54.66,2.05,1.03,4.23,1.03,6.5,0,7.02-3.45,13.23-8.74,17.05,6.53-.01,12.97,2.98,17.1,8.66,1.33,1.84,2.32,3.82,2.98,5.87,7.18-5.22,10.55-14.64,7.65-23.54ZM41.08,29.16c-1.31,4.07-1.42,8.57,0,12.95,1.42-4.38,1.31-8.88,0-12.95ZM41.08,42.11c4.6,0,8.85-1.49,12.31-4-4.28,0-8.59,1.3-12.31,4ZM48.69,52.58c-1.33-4.06-3.89-7.77-7.61-10.47,1.42,4.38,4.16,7.95,7.61,10.47Z"/>
  </g>
</svg>