<?xml version="1.0" encoding="UTF-8"?>
<svg id="Layer_2" data-name="Layer 2" xmlns="http://www.w3.org/2000/svg" viewBox="0 0 82.17 80.19">
  <defs>
    <style>
      .cls-1 {
        fill: #e03c3d;
        stroke-width: 0px;
      }
    </style>
  </defs>
  <g id="OBJECTS">
    <g>
      <path class="cls-1" d="M41.08,29.16c2-6.21,6.84-11.41,13.52-13.58,2.16-.7,4.35-1.02,6.5-1.03C58.36,6.11,50.44,0,41.08,0s-17.28,6.11-20.02,14.55c2.15,0,4.34.32,6.5,1.03,6.68,2.17,11.51,7.37,13.52,13.58Z"/>
      <path class="cls-1" d="M36.43,71.52c-4.13-5.68-4.98-12.73-2.95-18.93-5.27,3.85-12.24,5.21-18.92,3.04-2.16-.7-4.12-1.73-5.86-2.99-2.75,8.44.07,18.04,7.64,23.54,7.57,5.5,17.57,5.21,24.75,0-1.74-1.27-3.32-2.81-4.66-4.65Z"/>
      <path class="cls-1" d="M81.13,29.1c-2.89-8.9-11.15-14.55-20.03-14.54.66,2.05,1.03,4.23,1.03,6.5,0,7.02-3.45,13.23-8.74,17.05,6.53-.01,12.97,2.98,17.1,8.66,1.33,1.84,2.32,3.82,2.98,5.87,7.18-5.22,10.55-14.64,7.65-23.54Z"/>
      <path class="cls-1" d="M48.69,52.58c2.03,6.2,1.18,13.25-2.95,18.93-1.33,1.84-2.92,3.38-4.66,4.65,7.18,5.22,17.18,5.51,24.75,0,7.57-5.5,10.39-15.1,7.64-23.54-1.74,1.27-3.7,2.29-5.86,2.99-6.68,2.17-13.65.8-18.92-3.04Z"/>
      <path class="cls-1" d="M28.77,38.11c-5.29-3.82-8.74-10.03-8.74-17.05,0-2.27.37-4.45,1.03-6.5-8.88,0-17.14,5.64-20.03,14.54-2.89,8.9.47,18.32,7.65,23.54.67-2.05,1.65-4.03,2.98-5.87,4.13-5.68,10.57-8.67,17.1-8.66Z"/>
      <path class="cls-1" d="M52.84,27.2c.61.1,1.26-.13,1.65-.67.55-.76.38-1.81-.37-2.36-.76-.55-1.81-.38-2.36.37-.39.54-.41,1.22-.12,1.77l-10.02,13.78c.82-3.73.58-7.49-.53-10.94-1.11,3.45-1.35,7.21-.53,10.94l-10.02-13.78c.29-.55.26-1.24-.12-1.77-.55-.76-1.61-.92-2.36-.37-.76.55-.92,1.61-.37,2.36.39.54,1.04.77,1.65.67l10.02,13.78c-3.3-1.93-6.94-2.87-10.57-2.87,2.94,2.12,6.44,3.51,10.24,3.89l-16.2,5.26c-.44-.44-1.1-.63-1.73-.43-.89.29-1.37,1.24-1.09,2.13.29.89,1.24,1.38,2.13,1.09.63-.21,1.05-.75,1.14-1.36l16.2-5.27c-2.85,2.54-4.87,5.72-6,9.16,2.93-2.14,5.33-5.04,6.86-8.53v17.04c-.56.28-.94.85-.94,1.51,0,.93.76,1.69,1.69,1.69s1.69-.76,1.69-1.69c0-.66-.39-1.23-.94-1.51v-17.04c1.53,3.5,3.93,6.4,6.86,8.53-1.13-3.44-3.14-6.62-6-9.16l16.2,5.27c.09.61.51,1.16,1.14,1.36.89.29,1.84-.2,2.13-1.09.29-.89-.2-1.84-1.09-2.13-.63-.21-1.29-.01-1.73.43l-16.2-5.26c3.8-.38,7.3-1.76,10.24-3.89-3.62,0-7.27.94-10.57,2.87l10.02-13.78Z"/>
    </g>
  </g>
</svg>