<?xml version="1.0" encoding="UTF-8"?>
<svg id="Layer_2" data-name="Layer 2" xmlns="http://www.w3.org/2000/svg" viewBox="0 0 83.27 81.12">
  <defs>
    <style>
      .cls-1 {
        fill: #e03c3d;
        stroke-width: 0px;
      }
    </style>
  </defs>
  <g id="OBJECTS">
    <path class="cls-1" d="M39.23,39.44c.79.1,1.59.16,2.4.16s1.61-.06,2.4-.16c-1.9-9.69,3.68-19.49,13.3-22.62,1.23-.4,2.48-.67,3.72-.82C59.29,6.89,51.27,0,41.63,0s-17.66,6.89-19.43,16.01c1.24.15,2.49.42,3.72.82,9.63,3.13,15.2,12.93,13.3,22.62ZM37.74,44.02c.33-.72.64-1.46.89-2.24s.44-1.56.59-2.34c-9.8-1.19-17.4-9.52-17.4-19.64,0-1.3.13-2.56.37-3.79C12.98,14.88,3.95,20.37.97,29.54c-2.98,9.17,1.09,18.92,9.22,23.43.53-1.13,1.17-2.24,1.93-3.29,5.95-8.19,16.99-10.46,25.62-5.66ZM41.63,46.84c-.58-.54-1.19-1.06-1.85-1.54s-1.34-.9-2.04-1.28c-4.16,8.95-14.43,13.6-24.06,10.48-1.23-.4-2.4-.92-3.49-1.53-3.93,8.42-1.49,18.71,6.31,24.37s18.34,4.81,25.13-1.53c-.91-.85-1.77-1.8-2.53-2.85-5.95-8.19-4.7-19.4,2.53-26.12ZM45.52,44.02c-.69.39-1.38.8-2.04,1.28s-1.27,1-1.85,1.54c7.23,6.72,8.48,17.93,2.53,26.12-.76,1.05-1.62,2-2.53,2.85,6.79,6.34,17.33,7.2,25.13,1.53,7.8-5.67,10.24-15.95,6.31-24.37-1.09.61-2.26,1.12-3.49,1.53-9.63,3.13-19.9-1.52-24.06-10.48ZM82.29,29.54c-2.98-9.17-12.01-14.67-21.23-13.53.24,1.23.37,2.49.37,3.79,0,10.12-7.6,18.45-17.4,19.64.15.78.34,1.56.59,2.34.25.78.56,1.52.89,2.24,8.63-4.8,19.67-2.52,25.62,5.66.76,1.05,1.4,2.15,1.93,3.29,8.13-4.5,12.2-14.26,9.22-23.43Z"/>
  </g>
</svg>