<?xml version="1.0" encoding="UTF-8"?>
<svg id="Layer_2" data-name="Layer 2" xmlns="http://www.w3.org/2000/svg" viewBox="0 0 84.41 82.33">
  <defs>
    <style>
      .cls-1 {
        fill: #e03c3d;
        stroke-width: 0px;
      }
    </style>
  </defs>
  <g id="OBJECTS">
    <g>
      <path class="cls-1" d="M40.83,42.21c-11.01-.71-19.75-9.9-19.75-21.08S30.55,0,42.2,0c8.72,0,16.44,5.29,19.63,13.3-1.94.12-3.86.49-5.72,1.09-5.89,1.91-10.68,6-13.49,11.52-2.59,5.09-3.21,10.82-1.8,16.3Z"/>
      <path class="cls-1" d="M21.14,57.57c-2.21,0-4.41-.35-6.53-1.04-5.37-1.74-9.73-5.47-12.3-10.5C-.25,41-.7,35.27,1.04,29.9c2.7-8.29,10.11-14,18.72-14.56-.49,1.89-.73,3.82-.73,5.78,0,12.29,9.62,22.38,21.73,23.13-3.18,8.02-10.9,13.31-19.62,13.31h0Z"/>
      <path class="cls-1" d="M29.17,82.33c-4.48,0-8.77-1.4-12.4-4.04-7.06-5.13-10.19-13.95-8.06-22.3,1.64,1.04,3.41,1.88,5.27,2.48,2.33.76,4.74,1.14,7.17,1.14,9.58,0,18.07-5.83,21.55-14.66,8.49,7.05,10.16,19.61,3.59,28.67-3.96,5.45-10.36,8.71-17.11,8.71Z"/>
      <path class="cls-1" d="M55.25,82.32c-3.98,0-7.95-1.15-11.3-3.26,1.5-1.24,2.84-2.66,3.99-4.24,3.64-5.01,5.11-11.13,4.14-17.25-.89-5.64-3.76-10.64-8.13-14.24,3.38-2.14,7.24-3.26,11.26-3.26,6.75,0,13.15,3.26,17.11,8.71,6.85,9.42,4.75,22.66-4.67,29.51-3.63,2.64-7.92,4.03-12.39,4.03h0Z"/>
      <path class="cls-1" d="M76.78,52.68c-.72-1.81-1.66-3.52-2.81-5.11-4.35-5.98-11.36-9.55-18.77-9.55-4.43,0-8.69,1.25-12.41,3.62-1.27-4.98-.7-10.18,1.65-14.8,2.56-5.03,6.93-8.76,12.3-10.5,2.12-.69,4.32-1.04,6.53-1.04,9.18,0,17.25,5.87,20.09,14.6,2.7,8.29.05,17.27-6.59,22.78Z"/>
    </g>
  </g>
</svg>