<?xml version="1.0" encoding="UTF-8"?>
<svg id="Layer_2" data-name="Layer 2" xmlns="http://www.w3.org/2000/svg" viewBox="0 0 84.33 81.86">
  <defs>
    <style>
      .cls-1 {
        fill: #e03c3d;
        stroke-width: 0px;
      }
    </style>
  </defs>
  <g id="OBJECTS">
    <path class="cls-1" d="M83.5,30.03c-2.89-8.9-12.45-13.77-21.35-10.88-1.25.41-2.41.96-3.49,1.61.28-1.23.45-2.5.45-3.82C59.11,7.59,51.52,0,42.17,0s-16.94,7.59-16.94,16.94c0,1.31.16,2.59.45,3.82-1.08-.65-2.24-1.2-3.49-1.6-8.9-2.89-18.46,1.98-21.35,10.88s1.98,18.46,10.88,21.35c1.25.41,2.51.64,3.77.75-.95.83-1.83,1.76-2.61,2.82-5.5,7.57-3.82,18.16,3.75,23.66,7.57,5.5,18.16,3.82,23.66-3.75.77-1.06,1.39-2.19,1.88-3.35.49,1.16,1.11,2.29,1.88,3.35,5.5,7.57,16.09,9.25,23.66,3.75,7.57-5.5,9.25-16.09,3.75-23.66-.77-1.06-1.65-2-2.61-2.82,1.26-.11,2.52-.35,3.77-.75,8.9-2.89,13.77-12.45,10.88-21.35ZM55.2,46.91c.44-.44,1.1-.63,1.73-.43.89.29,1.37,1.24,1.09,2.13-.29.89-1.24,1.38-2.13,1.09-.63-.2-1.05-.75-1.14-1.36l-10.61-3.45,6.55,9.02c.61-.1,1.26.13,1.65.67.55.76.38,1.81-.37,2.36-.76.55-1.81.38-2.36-.37-.39-.54-.41-1.22-.13-1.77l-6.55-9.02v11.15c.56.28.94.85.94,1.51,0,.93-.76,1.69-1.69,1.69s-1.69-.76-1.69-1.69c0-.66.39-1.23.94-1.51v-11.15l-6.55,9.02c.29.55.26,1.24-.13,1.77-.55.76-1.61.92-2.36.37s-.92-1.61-.37-2.36c.39-.54,1.04-.77,1.65-.67l6.55-9.02-10.61,3.45c-.09.61-.51,1.16-1.14,1.36-.89.29-1.84-.2-2.13-1.09-.29-.89.2-1.84,1.09-2.13.63-.21,1.29-.01,1.73.43l10.61-3.45-10.61-3.45c-.44.44-1.1.63-1.73.43-.89-.29-1.37-1.24-1.09-2.13.29-.89,1.24-1.38,2.13-1.09.63.21,1.05.75,1.14,1.36l10.61,3.45-6.55-9.02c-.61.1-1.26-.13-1.65-.67-.55-.76-.38-1.81.37-2.36.76-.55,1.81-.38,2.36.37.39.54.41,1.22.13,1.77l6.55,9.02v-11.15c-.56-.28-.94-.85-.94-1.51,0-.93.76-1.69,1.69-1.69s1.69.76,1.69,1.69c0,.66-.39,1.23-.94,1.51v11.15l6.55-9.02c-.29-.55-.26-1.24.13-1.77.55-.76,1.61-.92,2.36-.37.76.55.92,1.61.37,2.36-.39.54-1.04.77-1.65.67l-6.55,9.02,10.61-3.45c.09-.61.51-1.16,1.14-1.36.89-.29,1.84.2,2.13,1.09.29.89-.2,1.84-1.09,2.13-.63.2-1.29.01-1.73-.43l-10.61,3.45,10.61,3.45Z"/>
  </g>
</svg>