<?xml version="1.0" encoding="UTF-8"?>
<svg id="Layer_2" data-name="Layer 2" xmlns="http://www.w3.org/2000/svg" viewBox="0 0 84.41 82.33">
  <defs>
    <style>
      .cls-1 {
        fill: #e03c3d;
        stroke-width: 0px;
      }
    </style>
  </defs>
  <g id="OBJECTS">
    <g>
      <path class="cls-1" d="M39.21,42.03c-3.88-3.77-6.4-8.73-7.11-14.14-.25-1.92-.27-3.84-.06-5.74-.74-.52-1.13-1.45-.9-2.38.29-1.21,1.51-1.95,2.72-1.66,1.21.29,1.95,1.51,1.66,2.73-.19.79-.78,1.37-1.5,1.61-.18,1.72-.16,3.45.06,5.19.64,4.89,2.9,9.38,6.37,12.83-.88-4.93-.15-10,2.17-14.54,2.81-5.52,7.6-9.61,13.49-11.52,1.86-.6,3.78-.97,5.72-1.09C58.65,5.29,50.93,0,42.2,0c-11.65,0-21.13,9.48-21.13,21.13,0,10.63,7.9,19.44,18.13,20.9Z"/>
      <path class="cls-1" d="M21.14,57.57h0c8.6,0,16.23-5.16,19.48-13-4.92,2.76-10.65,3.73-16.23,2.69-1.9-.36-3.74-.93-5.48-1.71-.72.54-1.73.63-2.54.12-1.06-.65-1.39-2.04-.74-3.1.65-1.06,2.04-1.39,3.1-.74.69.43,1.06,1.17,1.06,1.92,1.58.7,3.23,1.22,4.95,1.54,4.37.81,8.83.28,12.85-1.47-10.59-2.14-18.59-11.49-18.59-22.69,0-1.96.25-3.89.73-5.78-8.6.55-16.02,6.26-18.72,14.56-1.74,5.37-1.29,11.09,1.27,16.12,2.56,5.03,6.93,8.76,12.3,10.5,2.12.69,4.32,1.04,6.53,1.04Z"/>
      <path class="cls-1" d="M43.07,45.29c.82,5.22-.07,10.58-2.62,15.27-.93,1.7-2.04,3.27-3.32,4.68.29.85.06,1.84-.67,2.45-.95.81-2.37.69-3.18-.26-.81-.95-.69-2.37.26-3.18.62-.53,1.44-.65,2.16-.42,1.15-1.28,2.16-2.7,3-4.24,1.98-3.65,2.87-7.73,2.64-11.81-4.04,7.21-11.68,11.82-20.19,11.82-2.43,0-4.84-.38-7.17-1.14-1.86-.6-3.63-1.44-5.27-2.48-2.13,8.35,1,17.17,8.06,22.3,3.63,2.64,7.92,4.04,12.4,4.04,6.75,0,13.15-3.26,17.11-8.71,6.47-8.91,4.94-21.22-3.21-28.32Z"/>
      <path class="cls-1" d="M83.36,29.9c-2.84-8.74-10.91-14.6-20.09-14.6-2.21,0-4.41.35-6.53,1.04-5.37,1.74-9.73,5.47-12.3,10.5-1.95,3.82-2.66,8.05-2.13,12.21,2.43-4.26,6.1-7.7,10.58-9.84,1.75-.83,3.57-1.44,5.44-1.83.26-.86,1.03-1.52,1.98-1.59,1.24-.09,2.33.84,2.42,2.08.09,1.24-.84,2.33-2.08,2.42-.81.06-1.55-.32-1.99-.93-1.69.36-3.33.91-4.92,1.66-4.53,2.16-8.15,5.78-10.34,10.24,3.57-2.12,7.6-3.25,11.78-3.25,7.4,0,14.42,3.57,18.77,9.55,1.15,1.58,2.09,3.29,2.81,5.11,6.64-5.5,9.28-14.48,6.59-22.78Z"/>
      <path class="cls-1" d="M55.2,40.07c-3.4,0-6.68.81-9.65,2.35,4.75,1.01,9.12,3.42,12.51,7,1.33,1.41,2.47,2.95,3.43,4.61.9-.02,1.76.51,2.13,1.39.47,1.15-.08,2.47-1.23,2.94-1.15.47-2.47-.08-2.94-1.23-.31-.75-.18-1.57.27-2.18-.86-1.49-1.9-2.89-3.1-4.16-3.12-3.29-7.14-5.51-11.52-6.43,3.72,3.5,6.17,8.09,6.99,13.21.97,6.11-.5,12.24-4.14,17.25-1.15,1.58-2.49,3-3.99,4.24,3.36,2.11,7.32,3.26,11.3,3.26h0c4.47,0,8.76-1.39,12.39-4.03,9.42-6.85,11.52-20.09,4.67-29.51-3.96-5.45-10.36-8.71-17.11-8.71Z"/>
    </g>
  </g>
</svg>