<?xml version="1.0" encoding="UTF-8"?>
<svg id="Layer_2" data-name="Layer 2" xmlns="http://www.w3.org/2000/svg" viewBox="0 0 82.48 80.19">
  <defs>
    <style>
      .cls-1 {
        fill: #e03c3d;
        stroke-width: 0px;
      }
    </style>
  </defs>
  <g id="OBJECTS">
    <g>
      <g>
        <path class="cls-1" d="M15.63,52.59h0c5.83,0,13.36-3.75,18.62-6.87-.48-1-.75-2.12-.75-3.3,0-1.46.41-2.82,1.12-3.99-5.77-5.06-13.58-13.22-13.58-20.31,0-.37.01-.73.03-1.1-.97-.16-1.96-.24-2.94-.24-7.87,0-14.8,5.03-17.23,12.53-1.5,4.6-1.11,9.51,1.09,13.83,2.2,4.31,5.94,7.51,10.55,9.01.91.3,1.95.44,3.1.44Z"/>
        <path class="cls-1" d="M35.94,36.8c1.38-1.31,3.25-2.11,5.3-2.11.6,0,1.19.08,1.75.21,3.03-7.05,8.37-17,15.11-19.19.35-.11.7-.22,1.06-.31C57.83,6.55,50.28,0,41.24,0c-9.99,0-18.12,8.13-18.12,18.12,0,6.24,7.33,13.85,12.82,18.68Z"/>
        <path class="cls-1" d="M48.83,43.85c-.48,2.57-2.23,4.7-4.58,5.69,1.69,7.48,3.22,18.67-.95,24.4-.21.29-.44.59-.67.87,3.39,3.43,8.04,5.38,12.9,5.38h0c3.84,0,7.52-1.2,10.64-3.46,3.92-2.85,6.49-7.05,7.25-11.83.76-4.78-.39-9.57-3.24-13.49-3.66-5.04-14.06-6.89-21.35-7.57Z"/>
        <path class="cls-1" d="M42.22,50.08c-.32.04-.65.07-.99.07-2.33,0-4.42-1.04-5.84-2.67-5.47,3.25-13.39,7.19-19.77,7.19-1.37,0-2.63-.18-3.74-.55-.35-.11-.69-.24-1.04-.37-4.12,7.93-1.86,17.67,5.45,22.98,3.12,2.27,6.8,3.46,10.64,3.46,5.79,0,11.28-2.79,14.68-7.47,3.67-5.05,2.21-15.52.61-22.65Z"/>
        <path class="cls-1" d="M81.58,29.31c-2.43-7.49-9.36-12.53-17.23-12.53-1.9,0-3.78.3-5.61.89-5.94,1.93-10.91,11.25-13.8,17.96,2.22,1.21,3.77,3.48,3.99,6.13,7.66.71,18.77,2.72,22.92,8.44.21.29.42.6.62.91,7.99-3.99,11.89-13.2,9.1-21.8Z"/>
      </g>
      <path class="cls-1" d="M47.51,42.42c0,3.46-2.81,6.27-6.27,6.27s-6.27-2.81-6.27-6.27,2.81-6.27,6.27-6.27,6.27,2.81,6.27,6.27Z"/>
    </g>
  </g>
</svg>