<?xml version="1.0" encoding="UTF-8"?>
<svg id="Layer_2" data-name="Layer 2" xmlns="http://www.w3.org/2000/svg" viewBox="0 0 84.89 82.27">
  <defs>
    <style>
      .cls-1 {
        fill: #e03c3d;
        stroke-width: 0px;
      }
    </style>
  </defs>
  <g id="OBJECTS">
    <path class="cls-1" d="M74.03,50.07c8.25-2.68,12.77-11.54,10.09-19.8-2.68-8.25-11.54-12.77-19.8-10.09-4.1,1.33-9.52,7.17-13.95,12.71,3.9-5.92,7.78-12.88,7.78-17.19,0-8.68-7.03-15.71-15.71-15.71s-15.71,7.03-15.71,15.71c0,4.31,3.88,11.27,7.78,17.19-4.42-5.54-9.85-11.38-13.95-12.71-8.25-2.68-17.11,1.83-19.8,10.09-2.68,8.25,1.83,17.11,10.09,19.8,4.1,1.33,11.92-.2,18.75-2.09-6.64,2.49-13.87,5.85-16.4,9.34-5.1,7.02-3.54,16.84,3.48,21.94,7.02,5.1,16.84,3.54,21.94-3.48,2.53-3.49,3.49-11.4,3.81-18.48.32,7.08,1.28,14.99,3.81,18.48,5.1,7.02,14.92,8.58,21.94,3.48,7.02-5.1,8.58-14.92,3.48-21.94-2.53-3.49-9.76-6.84-16.4-9.34,6.83,1.88,14.66,3.42,18.75,2.09ZM50.59,45.43c-1.06.34-3.08-.05-4.84-.54,1.71.64,3.58,1.51,4.23,2.41,1.31,1.81.91,4.34-.9,5.66-1.81,1.31-4.34.91-5.66-.9-.65-.9-.9-2.94-.98-4.77-.08,1.83-.33,3.87-.98,4.77-1.31,1.81-3.85,2.21-5.66.9-1.81-1.32-2.21-3.85-.9-5.66.65-.9,2.52-1.77,4.23-2.41-1.76.49-3.78.88-4.84.54-2.13-.69-3.29-2.98-2.6-5.1.69-2.13,2.98-3.29,5.1-2.6,1.06.34,2.46,1.85,3.6,3.28-1.01-1.53-2.01-3.32-2.01-4.44,0-2.24,1.81-4.05,4.05-4.05s4.05,1.81,4.05,4.05c0,1.11-1,2.91-2.01,4.44,1.14-1.43,2.54-2.94,3.6-3.28,2.13-.69,4.41.47,5.1,2.6.69,2.13-.47,4.41-2.6,5.1Z"/>
  </g>
</svg>