<?xml version="1.0" encoding="UTF-8"?>
<svg id="Layer_2" data-name="Layer 2" xmlns="http://www.w3.org/2000/svg" viewBox="0 0 84.33 81.86">
  <defs>
    <style>
      .cls-1 {
        fill: #e03c3d;
        stroke-width: 0px;
      }
    </style>
  </defs>
  <g id="OBJECTS">
    <path class="cls-1" d="M83.5,30.03c-2.89-8.9-12.45-13.77-21.35-10.88-1.25.41-2.41.96-3.49,1.61.28-1.23.45-2.5.45-3.82C59.11,7.59,51.52,0,42.17,0s-16.94,7.59-16.94,16.94c0,1.31.16,2.59.45,3.82-1.08-.65-2.24-1.2-3.49-1.6-8.9-2.89-18.46,1.98-21.35,10.88-2.89,8.9,1.98,18.46,10.88,21.35,1.25.41,2.51.64,3.77.75-.95.83-1.83,1.76-2.6,2.82-5.5,7.57-3.82,18.16,3.75,23.66,7.57,5.5,18.16,3.82,23.66-3.75.77-1.06,1.39-2.19,1.88-3.35.49,1.16,1.11,2.29,1.88,3.35,5.5,7.57,16.09,9.25,23.66,3.75,7.57-5.5,9.25-16.09,3.75-23.66-.77-1.06-1.65-2-2.61-2.82,1.26-.11,2.52-.35,3.77-.75,8.9-2.89,13.77-12.45,10.88-21.35ZM68.09,37.41c-.84.27-1.72.02-2.3-.57l-13.92,4.52c-.78.25-1.35.89-1.64,1.66,0,0,0,0,0,.01l10.81.1c.19-.37.56-.62,1-.62.62,0,1.12.52,1.12,1.14,0,.62-.52,1.12-1.14,1.12-.44,0-.81-.27-.99-.64l-11.4-.1c-.38.44-.88.8-1.48.99-.25.08-.49.13-.74.15.19.16.36.35.51.56.37.51.56,1.09.61,1.67l9.28,6.62c.36-.19.82-.19,1.18.07.51.36.63,1.07.26,1.57-.36.51-1.07.63-1.57.26-.36-.26-.51-.68-.45-1.09l-8.8-6.28s0,0,0,.01c-.22.8-.13,1.64.35,2.31l8.6,11.84c.82-.14,1.68.17,2.2.89.85,1.17.41,2.87-1.03,3.44-.75.29-1.63.14-2.24-.38-.87-.74-1-1.89-.54-2.77l-8.6-11.84c-.48-.67-1.26-1.01-2.09-1.05,0,0,0,0-.01,0l3.25,10.31c.41.07.77.34.9.76.19.59-.14,1.23-.74,1.41-.59.19-1.23-.14-1.41-.74-.13-.42,0-.85.3-1.14l-3.42-10.87c-.54-.23-1.03-.59-1.4-1.1-.15-.21-.27-.43-.37-.66-.1.23-.22.45-.37.66-.37.51-.86.87-1.4,1.1l-3.42,10.87c.3.29.43.72.3,1.14-.19.59-.82.92-1.41.74-.59-.19-.92-.82-.74-1.41.13-.42.49-.7.9-.76l3.25-10.31s0,0-.01,0c-.82.04-1.6.38-2.09,1.05l-8.6,11.84c.38.73.35,1.65-.17,2.37-.85,1.17-2.61,1.28-3.59.08-.51-.62-.64-1.51-.33-2.25.44-1.06,1.49-1.54,2.47-1.37l8.6-11.84c.48-.67.57-1.51.35-2.31,0,0,0,0,0-.01l-8.8,6.28c.06.41-.09.83-.45,1.09-.51.36-1.21.24-1.57-.26-.36-.51-.24-1.21.26-1.57.36-.26.81-.26,1.18-.07l9.28-6.62c.05-.58.24-1.16.61-1.67.15-.21.32-.39.51-.56-.25-.02-.49-.07-.74-.15-.6-.19-1.09-.55-1.48-.99l-11.4.1c-.18.37-.55.63-.99.64-.62,0-1.13-.49-1.14-1.12,0-.62.49-1.13,1.12-1.14.44,0,.81.25,1,.62l10.81-.1s0,0,0-.01c-.29-.77-.86-1.41-1.64-1.66l-13.92-4.52c-.58.59-1.46.85-2.3.57-1.37-.45-2.02-2.08-1.19-3.39.43-.67,1.24-1.07,2.04-1.01,1.14.09,1.92.94,2.07,1.92l13.92,4.52c.78.25,1.62.07,2.3-.38,0,0,0,0,.01,0l-8.69-6.43c-.37.19-.82.17-1.18-.09-.5-.37-.61-1.08-.24-1.58.37-.5,1.08-.61,1.58-.24.35.26.5.69.43,1.1l9.16,6.78c.57-.13,1.18-.13,1.77.07.25.08.47.19.69.32-.06-.24-.09-.49-.09-.75,0-.63.18-1.21.49-1.71l-3.62-10.81c-.41-.06-.77-.33-.91-.75-.2-.59.12-1.23.71-1.43.59-.2,1.23.12,1.43.71.14.42.01.85-.28,1.15l3.43,10.25s0,0,0,0c.64-.52,1.07-1.25,1.07-2.07v-14.63c-.74-.37-1.26-1.13-1.26-2.01,0-1.44,1.35-2.57,2.86-2.18.77.2,1.4.85,1.59,1.63.27,1.11-.3,2.12-1.19,2.56v14.63c0,.82.43,1.56,1.07,2.07,0,0,0,0,0,0l3.43-10.25c-.29-.29-.42-.73-.28-1.15.2-.59.84-.91,1.43-.71.59.2.91.84.71,1.43-.14.42-.5.69-.91.75l-3.62,10.81c.3.5.49,1.08.49,1.71,0,.26-.03.51-.09.75.21-.13.44-.24.69-.32.6-.19,1.21-.2,1.77-.07l9.16-6.78c-.07-.41.07-.84.43-1.1.5-.37,1.21-.27,1.58.24.37.5.27,1.21-.24,1.58-.35.26-.81.27-1.18.09l-8.69,6.43s0,0,.01,0c.69.45,1.52.63,2.3.38l13.92-4.52c.15-.99.93-1.83,2.07-1.92.8-.06,1.61.33,2.04,1.01.84,1.31.18,2.95-1.19,3.39Z"/>
  </g>
</svg>