<?xml version="1.0" encoding="UTF-8"?>
<svg id="Layer_2" data-name="Layer 2" xmlns="http://www.w3.org/2000/svg" viewBox="0 0 83.44 81">
  <defs>
    <style>
      .cls-1 {
        fill: #e03c3d;
        stroke-width: 0px;
      }
    </style>
  </defs>
  <g id="OBJECTS">
    <path class="cls-1" d="M81.9,27.89c-3.22-7.13-11.14-11.16-18.8-9.58-1.69.35-3.26.93-4.69,1.7.18-.99.28-2,.28-3.04C58.69,6.96,50.02-1.03,39.78.11c-7.77.86-14.05,7.15-14.92,14.92-.19,1.72-.12,3.39.17,4.98-.88-.47-1.81-.88-2.8-1.2C12.7,15.71,2.42,21.49.34,31.58c-1.58,7.66,2.45,15.58,9.58,18.8,1.57.71,3.19,1.17,4.79,1.38-.72.69-1.4,1.45-2.01,2.29-5.89,8.1-3.56,19.66,5.39,24.76,6.8,3.87,15.57,2.48,20.84-3.3,1.16-1.28,2.09-2.67,2.8-4.13.43.9.95,1.78,1.56,2.62,5.89,8.1,17.6,9.47,25.21,2.52,5.78-5.27,7.17-14.04,3.3-20.84-.85-1.5-1.89-2.81-3.06-3.93.99-.13,1.99-.35,2.97-.67,9.52-3.09,14.44-13.81,10.19-23.2ZM44.44,44.64l-2.72-1.66.66,2.76c.85,3.6.61,7.35-.65,10.81-1.22-3.37-1.57-6.98-.74-10.48l.74-3.09-2.43,1.48c-3.16,1.92-6.8,2.85-10.48,2.72,2.83-2.2,6.16-3.65,9.74-3.94l3.17-.26-2.16-1.85c-2.8-2.41-4.82-5.59-5.82-9.13,2.96,2.01,5.37,4.73,6.76,8.04l1.22,2.94,1.09-2.62c1.42-3.41,3.83-6.31,6.88-8.36-1,3.44-2.83,6.57-5.56,8.91l-2.41,2.07,2.83.23c3.68.3,7.18,1.69,10.08,3.96-3.58.12-7.13-.67-10.19-2.54Z"/>
  </g>
</svg>