<?xml version="1.0" encoding="UTF-8"?>
<svg id="Layer_2" data-name="Layer 2" xmlns="http://www.w3.org/2000/svg" viewBox="0 0 84.33 81.86">
  <defs>
    <style>
      .cls-1 {
        fill: #e03c3d;
        stroke-width: 0px;
      }
    </style>
  </defs>
  <g id="OBJECTS">
    <path class="cls-1" d="M83.5,30.03c-2.89-8.9-12.45-13.77-21.35-10.88-1.25.41-2.41.96-3.49,1.6.28-1.23.45-2.5.45-3.82C59.11,7.59,51.52,0,42.17,0s-16.94,7.59-16.94,16.94c0,1.31.16,2.59.45,3.82-1.08-.65-2.24-1.2-3.49-1.6-8.9-2.89-18.46,1.98-21.35,10.88s1.98,18.46,10.88,21.35c1.25.41,2.51.64,3.77.75-.95.83-1.83,1.76-2.6,2.82-5.5,7.57-3.82,18.16,3.75,23.66,7.57,5.5,18.16,3.82,23.66-3.75.77-1.06,1.39-2.19,1.88-3.35.49,1.16,1.11,2.29,1.88,3.35,5.5,7.57,16.09,9.25,23.66,3.75,7.57-5.5,9.25-16.09,3.75-23.66-.77-1.06-1.65-2-2.61-2.82,1.26-.11,2.52-.35,3.77-.75,8.9-2.89,13.77-12.45,10.88-21.35ZM45.13,29.41c.63.13,1.04.76.9,1.39-.13.63-.76,1.04-1.39.9-.63-.13-1.04-.76-.9-1.39.13-.63.76-1.04,1.39-.9ZM39.2,29.41c.63-.13,1.26.27,1.39.9.13.63-.27,1.26-.9,1.39-.63.13-1.26-.27-1.39-.9-.13-.63.27-1.26.9-1.39ZM42.17,57.6c-.65,0-1.17-.53-1.17-1.17s.53-1.17,1.17-1.17,1.17.53,1.17,1.17-.53,1.17-1.17,1.17ZM67.73,46.15c-.12,1.16-1.16,2.01-2.33,1.89-.99-.1-1.74-.88-1.87-1.82l-19.08-2.01,16.61,9.59c.66-.69,1.72-.87,2.59-.38,1.01.58,1.36,1.88.78,2.89-.58,1.01-1.88,1.36-2.89.78-.86-.5-1.24-1.51-.97-2.43l-16.61-9.59,11.28,15.52c.88-.36,1.93-.1,2.52.71.69.95.48,2.27-.47,2.96-.95.69-2.27.48-2.96-.47-.59-.81-.51-1.88.1-2.61l-11.28-15.52,3.99,18.76c.95.03,1.8.7,2.01,1.67.24,1.14-.49,2.27-1.63,2.51-1.14.24-2.27-.49-2.51-1.63-.21-.97.3-1.93,1.16-2.34l-3.99-18.76-3.99,18.76c.86.41,1.36,1.37,1.16,2.34-.24,1.14-1.37,1.87-2.51,1.63-1.14-.24-1.87-1.37-1.63-2.51.21-.97,1.06-1.64,2.01-1.67l3.99-18.76-11.27,15.52c.62.73.69,1.81.1,2.61-.69.95-2.01,1.16-2.96.47-.95-.69-1.16-2.01-.47-2.96.59-.81,1.63-1.07,2.52-.71l11.27-15.52-16.61,9.59c.27.92-.11,1.93-.97,2.43-1.01.58-2.31.24-2.89-.78-.58-1.01-.24-2.31.78-2.89.86-.5,1.93-.32,2.59.38l16.61-9.59-19.08,2.01c-.13.95-.88,1.72-1.87,1.82-1.16.12-2.21-.72-2.33-1.89-.12-1.16.72-2.21,1.89-2.33.99-.1,1.89.5,2.21,1.39l19.08-2.01-18.24-5.93c-.5.81-1.5,1.21-2.45.9-1.11-.36-1.72-1.56-1.36-2.67.36-1.11,1.56-1.72,2.67-1.36.95.31,1.52,1.22,1.45,2.17l18.24,5.93-14.25-12.84c-.79.54-1.87.5-2.61-.17-.87-.78-.94-2.12-.16-2.99.78-.87,2.12-.94,2.99-.16.74.67.9,1.74.44,2.58l14.25,12.83-7.8-17.52c-.94.17-1.91-.31-2.31-1.22-.48-1.07,0-2.32,1.07-2.8,1.07-.48,2.32,0,2.8,1.07.41.91.11,1.95-.64,2.53l7.8,17.52v-19.18c-.93-.23-1.62-1.06-1.62-2.05,0-1.17.95-2.12,2.12-2.12s2.12.95,2.12,2.12c0,1-.69,1.83-1.62,2.05v19.18l7.8-17.52c-.76-.58-1.05-1.62-.64-2.53.48-1.07,1.73-1.55,2.8-1.07,1.07.48,1.55,1.73,1.07,2.8-.41.91-1.37,1.39-2.31,1.22l-7.8,17.52,14.25-12.83c-.45-.84-.3-1.91.44-2.58.87-.78,2.21-.71,2.99.16.78.87.71,2.21-.16,2.99-.74.67-1.82.71-2.61.17l-14.26,12.84,18.24-5.93c-.07-.95.5-1.87,1.45-2.17,1.11-.36,2.31.25,2.67,1.36s-.25,2.31-1.36,2.67c-.95.31-1.95-.09-2.45-.9l-18.24,5.93,19.08,2.01c.32-.9,1.22-1.5,2.21-1.4,1.16.12,2.01,1.16,1.89,2.33ZM55.72,47.75c-.2.62-.86.95-1.48.75s-.95-.86-.75-1.48c.2-.62.86-.95,1.48-.75.62.2.95.86.75,1.48ZM52.76,52.88c-.43.48-1.18.52-1.66.09-.48-.43-.52-1.18-.09-1.66.43-.48,1.18-.52,1.66-.09s.52,1.18.09,1.66ZM47.96,56.36c-.59.26-1.29,0-1.55-.6-.26-.59,0-1.29.6-1.55s1.29,0,1.55.6c.26.59,0,1.29-.6,1.55ZM35.78,54.81c.26-.59.96-.86,1.55-.6.59.26.86.96.6,1.55-.26.59-.96.86-1.55.6s-.86-.96-.6-1.55ZM31.66,51.22c.48-.43,1.22-.4,1.66.09s.4,1.22-.09,1.66c-.48.43-1.22.4-1.66-.09s-.39-1.22.09-1.66ZM29.37,46.27c.62-.2,1.28.14,1.48.75.2.62-.14,1.28-.75,1.48-.62.2-1.28-.14-1.48-.75-.2-.62.14-1.28.75-1.48ZM27.99,41.86c.07-.65.65-1.11,1.29-1.05s1.11.65,1.05,1.29c-.07.64-.65,1.11-1.29,1.05-.64-.07-1.11-.65-1.05-1.29ZM29.83,36.22c.32-.56,1.04-.75,1.6-.43.56.32.75,1.04.43,1.6-.32.56-1.04.75-1.6.43-.56-.32-.75-1.04-.43-1.6ZM33.79,31.82c.52-.38,1.26-.26,1.64.26s.26,1.26-.26,1.64c-.52.38-1.26.26-1.64-.26-.38-.52-.26-1.26.26-1.64ZM50.8,33.46c-.38.52-1.12.64-1.64.26-.52-.38-.64-1.12-.26-1.64.38-.52,1.12-.64,1.64-.26.52.38.64,1.12.26,1.64ZM54.08,37.82c-.56.32-1.28.13-1.6-.43-.32-.56-.13-1.28.43-1.6.56-.32,1.28-.13,1.6.43.32.56.13,1.28-.43,1.6ZM56.34,41.86c.07.65-.4,1.22-1.05,1.29s-1.22-.4-1.29-1.05c-.07-.65.4-1.22,1.05-1.29.64-.07,1.22.4,1.29,1.05Z"/>
  </g>
</svg>